<?xml version="1.0" encoding="UTF-8"?>
<svg version="1.1" xmlns="http://www.w3.org/2000/svg" width="512" height="512">
<path d="M0 0 C3.64461991 2.99717876 6.94204897 6.27180793 10.21386719 9.66748047 C10.80425781 10.22693359 11.39464844 10.78638672 12.00292969 11.36279297 C23.62264763 23.23106103 28.02644841 41.67670776 28.24560547 57.69824219 C28.13580037 64.51122622 26.83589236 70.93598256 24.66601562 77.36499023 C24.39448669 78.17178726 24.12295776 78.97858429 23.84320068 79.80982971 C23.63552063 80.42285446 23.42784058 81.03587921 23.21386719 81.66748047 C24.38658424 81.6541568 24.38658424 81.6541568 25.58299255 81.64056396 C32.98237476 81.56012458 40.38154234 81.49936813 47.78124905 81.46023178 C51.58474451 81.43943429 55.38787604 81.41126239 59.19116211 81.36572266 C62.86758519 81.32198182 66.54366017 81.29828454 70.22032356 81.2879715 C71.61685725 81.28063033 73.01337378 81.26629564 74.40975761 81.24456024 C85.52209587 81.07860782 93.50030526 82.84119367 102.29199219 89.76904297 C108.8493681 96.24645088 113.07410547 104.51079927 113.52636719 113.72998047 C113.19433667 117.91356501 112.69228303 120.28031216 110.21386719 123.66748047 C108.23386719 123.99748047 106.25386719 124.32748047 104.21386719 124.66748047 C104.21386719 129.28748047 104.21386719 133.90748047 104.21386719 138.66748047 C105.32761719 138.56435547 106.44136719 138.46123047 107.58886719 138.35498047 C115.06579775 138.38144748 121.16932165 142.34176551 126.33886719 147.47998047 C127.31068018 148.53016547 128.27451712 149.58816102 129.21386719 150.66748047 C132.47404964 147.91443751 135.69069636 145.16752332 138.77636719 142.21826172 C149.27070812 132.24565649 159.30104007 127.21091553 174.01342773 127.30615234 C185.4959143 127.61147462 194.75590956 131.93708909 203.21386719 139.66748047 C212.01689528 149.29902885 215.86771444 159.7391543 215.68481445 172.73120117 C214.94882019 189.02654364 205.74073295 199.72297989 194.34716797 210.4621582 C193.3715231 211.39426433 192.39678235 212.32731757 191.42286682 213.26123047 C189.34181096 215.25557057 187.25702818 217.24590497 185.16992569 219.23391533 C181.85722414 222.39457024 178.56956246 225.58046999 175.28756714 228.77296448 C174.7301685 229.31504356 174.17276985 229.85712265 173.59848034 230.41562837 C171.8841154 232.08333436 170.17007031 233.7513686 168.45605469 235.41943359 C161.40701267 242.27851261 154.34235255 249.11830049 147.20214844 255.88256836 C141.97108898 260.83855911 136.78931503 265.84075756 131.6575259 270.8995319 C128.95057856 273.56444758 126.22627783 276.20191748 123.44003677 278.78402519 C108.86594057 292.29476873 108.86594057 292.29476873 103.4046154 310.9493494 C103.35486938 316.23081699 103.59028663 321.42272693 104.21386719 326.66748047 C105.00277344 326.80283203 105.79167969 326.93818359 106.60449219 327.07763672 C109.48845427 327.7295503 110.39889235 328.39876192 112.21386719 330.66748047 C113.79718417 333.83411443 113.37008262 337.24431701 113.375 340.72216797 C113.3799649 341.55495773 113.38492981 342.3877475 113.39004517 343.24577332 C113.40469239 346.0113507 113.41147562 348.7768706 113.41699219 351.54248047 C113.42274476 353.46622723 113.42850248 355.38997397 113.43426514 357.3137207 C113.4447846 361.35563423 113.45062001 365.39752783 113.45410156 369.43945312 C113.45956602 374.59962425 113.48354599 379.7595288 113.51207352 384.9196167 C113.53077736 388.89866887 113.53590977 392.87765809 113.53743744 396.85675049 C113.54045074 398.75760341 113.54843423 400.65845558 113.56162262 402.55926514 C113.6488023 416.09900642 113.43195096 427.86629101 104.21386719 438.66748047 C95.86797649 446.62698734 87.89911889 449.12545956 76.60037231 449.05516052 C75.0326186 449.06323883 75.0326186 449.06323883 73.43319309 449.07148033 C69.94345953 449.08574706 66.45410598 449.07865915 62.96435547 449.0715332 C60.45726212 449.07723744 57.95017137 449.0842019 55.44308472 449.09233093 C49.34737916 449.10840972 43.2518131 449.11036401 37.15609278 449.10511803 C32.19926481 449.10107029 27.24246724 449.10252704 22.28564072 449.10786629 C21.57911939 449.10861471 20.87259806 449.10936313 20.14466699 449.11013423 C18.70918457 449.11166577 17.27370215 449.11320412 15.83821975 449.1147492 C2.38757126 449.12846555 -11.06301901 449.1230428 -24.51366617 449.11156399 C-36.80579317 449.10163391 -49.09776959 449.11456986 -61.38987337 449.13849818 C-74.02598924 449.16290992 -86.66203505 449.17249187 -99.29817402 449.16584545 C-106.38655992 449.16235765 -113.47483008 449.16455611 -120.56319809 449.18209648 C-127.22978491 449.19838915 -133.89603882 449.19360463 -140.56263351 449.17479134 C-143.00630132 449.1711067 -145.44999044 449.17421019 -147.89363861 449.18467712 C-151.23564601 449.19789671 -154.57670365 449.18632968 -157.91867065 449.16868591 C-158.88016805 449.17829092 -159.84166544 449.18789593 -160.83229911 449.19779199 C-171.337157 449.08408873 -179.02369348 445.36207694 -186.58300781 438.18310547 C-191.74015269 432.29445068 -194.90555433 425.25915565 -194.92035389 417.42520905 C-194.92704066 415.78574554 -194.92704066 415.78574554 -194.93386251 414.11316156 C-194.93367814 412.90764564 -194.93349378 411.70212972 -194.93330383 410.46008301 C-194.93698052 409.18304552 -194.94065721 407.90600802 -194.94444531 406.59027243 C-194.95446939 403.03819148 -194.95818277 399.48612743 -194.96083462 395.93403435 C-194.96473659 392.10561275 -194.97431516 388.27720455 -194.98304749 384.4487915 C-195.00281725 375.19814937 -195.01287978 365.94750614 -195.02177528 356.69684815 C-195.02615824 352.33990549 -195.03152512 347.98296404 -195.03676414 343.62602234 C-195.05377864 329.14050804 -195.0682718 314.6549945 -195.07551289 300.16947174 C-195.07742277 296.40969339 -195.0793431 292.64991505 -195.08129883 288.89013672 C-195.08202444 287.48843004 -195.08202444 287.48843004 -195.08276471 286.05840605 C-195.09106116 270.92785166 -195.11639058 255.79737643 -195.14887951 240.66685659 C-195.18196828 225.13016641 -195.19996338 209.59351642 -195.20315713 194.05679083 C-195.20532078 185.33458901 -195.21404801 176.61250254 -195.2396183 167.89033508 C-195.26135034 160.46023219 -195.26936352 153.03027266 -195.25965152 145.60014158 C-195.25511373 141.81139736 -195.25696218 138.02294878 -195.27641296 134.2342453 C-195.29735415 130.11953909 -195.28703699 126.00548546 -195.27388 121.89074707 C-195.28484925 120.70307692 -195.2958185 119.51540677 -195.30712014 118.29174662 C-195.21866733 106.81018245 -192.29683013 98.1614434 -184.30175781 89.83544922 C-178.00403225 84.40806151 -170.92092169 81.57754738 -162.66235352 81.4621582 C-161.40127274 81.44221298 -160.14019196 81.42226776 -158.84089661 81.40171814 C-157.46457034 81.38473513 -156.08824279 81.36785628 -154.71191406 81.35107422 C-153.30372007 81.3304985 -151.89553216 81.30950187 -150.48735046 81.2881012 C-146.78352801 81.23294425 -143.0796504 81.18350693 -139.37573242 81.13525391 C-135.595165 81.08499226 -131.81467752 81.02933055 -128.03417969 80.97412109 C-120.6182318 80.86661755 -113.20221736 80.76515533 -105.78613281 80.66748047 C-105.99494583 79.988069 -106.20375885 79.30865753 -106.41889954 78.60865784 C-106.82751472 77.26601112 -106.82751472 77.26601112 -107.24438477 75.89624023 C-107.51507278 75.01057877 -107.7857608 74.1249173 -108.06465149 73.2124176 C-113.09123792 55.48174869 -109.28709882 36.81277867 -100.75097656 20.91357422 C-91.99319143 6.44494708 -79.55396885 -3.40490871 -63.78613281 -9.33251953 C-62.89152344 -9.67154297 -61.99691406 -10.01056641 -61.07519531 -10.35986328 C-40.98486461 -16.60571108 -16.8381922 -12.56189899 0 0 Z M104.21386719 156.66748047 C104.21386719 163.26748047 104.21386719 169.86748047 104.21386719 176.66748047 C108.44171552 173.04361047 112.37253816 169.62521341 116.21386719 165.66748047 C114.65222271 161.45104037 111.79900854 159.24878224 108.21386719 156.66748047 C106.89386719 156.66748047 105.57386719 156.66748047 104.21386719 156.66748047 Z " fill="#FBDDAF" transform="translate(245.7861328125,63.33251953125)"/>
<path d="M0 0 C3.64461991 2.99717876 6.94204897 6.27180793 10.21386719 9.66748047 C10.80425781 10.22693359 11.39464844 10.78638672 12.00292969 11.36279297 C23.62264763 23.23106103 28.02644841 41.67670776 28.24560547 57.69824219 C28.13580037 64.51122622 26.83589236 70.93598256 24.66601562 77.36499023 C24.39448669 78.17178726 24.12295776 78.97858429 23.84320068 79.80982971 C23.63552063 80.42285446 23.42784058 81.03587921 23.21386719 81.66748047 C24.38658424 81.6541568 24.38658424 81.6541568 25.58299255 81.64056396 C32.98237476 81.56012458 40.38154234 81.49936813 47.78124905 81.46023178 C51.58474451 81.43943429 55.38787604 81.41126239 59.19116211 81.36572266 C62.86758519 81.32198182 66.54366017 81.29828454 70.22032356 81.2879715 C71.61685725 81.28063033 73.01337378 81.26629564 74.40975761 81.24456024 C85.52209587 81.07860782 93.50030526 82.84119367 102.29199219 89.76904297 C108.8493681 96.24645088 113.07410547 104.51079927 113.52636719 113.72998047 C113.20083242 117.83171855 112.40357303 120.2144828 110.21386719 123.66748047 C107.07515531 125.23683641 104.67530897 125.0194915 101.21386719 124.66748047 C97.84506261 122.52369574 96.49988327 120.68255716 95.41699219 116.83935547 C94.94753823 114.7215965 94.48140118 112.60309959 94.01855469 110.48388672 C92.66753466 105.75531661 89.82586598 103.81893184 85.98667908 101.07659912 C82.54919458 99.32969969 80.07334299 99.24808012 76.22387695 99.18408203 C75.54028107 99.16918732 74.85668518 99.1542926 74.15237427 99.13894653 C71.90324689 99.0953256 69.65475328 99.07472317 67.40527344 99.05810547 C65.83495582 99.04083499 64.26463824 99.02356201 62.69432068 99.00628662 C59.40677969 98.97482917 56.11945727 98.95725294 52.83178711 98.94677734 C48.62636718 98.93030544 44.42385347 98.85817516 40.21934605 98.77286148 C36.97726577 98.71689369 33.735883 98.70136178 30.49336052 98.69676971 C28.94352201 98.68771215 27.3936937 98.66369762 25.84433174 98.62421417 C17.33578267 98.14249128 17.33578267 98.14249128 9.95968628 101.60583496 C8.38461216 103.91572726 7.25883231 106.08015046 6.21386719 108.66748047 C5.89563492 109.31557678 5.57740265 109.9636731 5.24952698 110.63140869 C2.72828098 115.94069873 2.09137867 120.87599769 2.07202148 126.69189453 C2.06498703 127.88373352 2.05795258 129.07557251 2.05070496 130.30352783 C2.04445854 132.22391876 2.04445854 132.22391876 2.03808594 134.18310547 C2.02764838 135.52204161 2.0162236 136.86097039 2.00386047 138.19989014 C1.95166225 143.86695037 1.90347471 149.53387649 1.88793945 155.20117188 C1.8777931 158.67612268 1.84830565 162.15046598 1.80661964 165.62517548 C1.78850717 167.57525316 1.79094352 169.52548737 1.79386902 171.47564697 C1.67719158 179.99741053 0.66417429 186.69693642 -5.04003906 193.26123047 C-5.801875 193.89029297 -6.56371094 194.51935547 -7.34863281 195.16748047 C-8.11304688 195.81716797 -8.87746094 196.46685547 -9.66503906 197.13623047 C-11.78613281 198.66748047 -11.78613281 198.66748047 -14.78613281 199.66748047 C-14.81191406 200.80185547 -14.83769531 201.93623047 -14.86425781 203.10498047 C-15.20697908 213.47632399 -15.88306803 220.55934937 -23.03613281 228.47998047 C-29.64442625 234.57352262 -36.45531226 235.35817519 -45.30957031 235.14013672 C-52.63495399 234.14421377 -57.73906296 230.35131778 -62.28613281 224.66748047 C-66.28486185 219.08785856 -66.91033857 213.91397701 -66.84863281 207.16748047 C-66.96076304 201.99180394 -66.96076304 201.99180394 -69.63769531 197.71044922 C-71.20586965 196.80048852 -72.80275157 195.93843755 -74.42285156 195.12451172 C-78.97686407 192.31683128 -81.7604367 186.93159814 -83.34562683 181.88697815 C-83.88887908 179.14979148 -83.91865316 176.57993266 -83.92797852 173.78833008 C-83.9385302 172.01014137 -83.9385302 172.01014137 -83.94929504 170.19602966 C-83.95345932 168.91688187 -83.9576236 167.63773407 -83.96191406 166.31982422 C-83.97235049 164.98425007 -83.98377508 163.64868331 -83.99613953 162.31312561 C-84.04836384 156.65531874 -84.09647634 150.99764192 -84.11206055 145.33959961 C-84.12223374 141.87227757 -84.15179379 138.40555993 -84.19338036 134.93847847 C-84.21143598 132.99625059 -84.20906126 131.0538666 -84.20613098 129.11155701 C-84.3145236 121.1746689 -85.46252409 114.87760477 -88.78613281 107.66748047 C-89.05743515 106.86771286 -89.32873749 106.06794525 -89.60826111 105.24394226 C-90.71351103 102.65532258 -91.52364429 101.36290807 -93.78613281 99.66748047 C-99.03692012 98.4973721 -104.21712014 98.63868747 -109.55957031 98.74560547 C-111.1274861 98.75037847 -112.69541347 98.75218409 -114.26333618 98.75115967 C-117.54738151 98.75740946 -120.82967648 98.79047122 -124.11328125 98.84423828 C-128.30884226 98.91209047 -132.50247716 98.92749847 -136.69852257 98.92445755 C-139.936454 98.92554906 -143.17396972 98.94754986 -146.41176224 98.97646332 C-147.95778893 98.98913585 -149.50386244 98.99706218 -151.0499382 99.00003815 C-162.22660757 98.72941771 -162.22660757 98.72941771 -171.78613281 103.66748047 C-177.30941559 110.0218915 -177.49899132 116.0843668 -177.42105103 124.23059082 C-177.42885098 125.48543227 -177.43665093 126.74027371 -177.44468725 128.03314066 C-177.46548845 131.50013391 -177.45527686 134.96643574 -177.43975616 138.43343091 C-177.42841864 142.17858301 -177.44591719 145.92361825 -177.45965576 149.66874695 C-177.48186724 156.9990799 -177.47709639 164.32915661 -177.46259256 171.65949953 C-177.45129205 177.61797649 -177.44977292 183.57638173 -177.45521164 189.53486633 C-177.4559778 190.38350853 -177.45674397 191.23215073 -177.45753335 192.10650936 C-177.45913201 193.83061026 -177.46075308 195.55471113 -177.46239631 197.27881199 C-177.47664768 213.43866425 -177.46027071 229.59837459 -177.43339448 245.75820357 C-177.41105623 259.61849583 -177.41493653 273.4785787 -177.43798828 287.33886719 C-177.46475711 303.44161917 -177.47527444 319.54424683 -177.45992696 335.64701796 C-177.45833425 337.36471015 -177.45676239 339.08240237 -177.45521164 340.8000946 C-177.45444026 341.64519086 -177.45366888 342.49028711 -177.45287413 343.36099234 C-177.44856038 349.3110299 -177.45583667 355.26098847 -177.46760941 361.21101379 C-177.481645 368.46400998 -177.47781235 375.71673566 -177.45120569 382.96970093 C-177.43808153 386.66903576 -177.43289064 390.3679199 -177.44945145 394.06725121 C-177.46714347 398.08001506 -177.44599367 402.09164497 -177.42105103 406.10437012 C-177.43220463 407.27013155 -177.44335824 408.43589299 -177.45484984 409.63698053 C-177.37195057 416.50606186 -176.62520249 421.54991693 -171.78613281 426.66748047 C-166.65558424 431.21186337 -161.16768736 431.23992416 -154.58314514 431.18214417 C-153.06355899 431.19256246 -153.06355899 431.19256246 -151.51327413 431.20319122 C-148.12621842 431.221455 -144.73986361 431.21119824 -141.3527832 431.20092773 C-138.92140682 431.20798648 -136.49003484 431.2167313 -134.05867004 431.22703552 C-128.14462952 431.24720702 -122.23076643 431.24855574 -116.31671364 431.24040998 C-111.50857774 431.23410318 -106.70049791 431.23525323 -101.89236259 431.24168205 C-101.20733122 431.24258371 -100.52229984 431.24348536 -99.81650994 431.24441434 C-98.42475052 431.24626559 -97.0329911 431.24812816 -95.64123171 431.2500019 C-82.59789646 431.26657084 -69.55466946 431.25786899 -56.51134073 431.24101632 C-44.58635415 431.22632099 -32.66161956 431.24094688 -20.73666544 431.26978648 C-8.48252323 431.29920078 3.77150274 431.31014681 16.02567869 431.30060428 C17.41254618 431.29958177 18.79941368 431.29858715 20.1862812 431.29762077 C21.20974431 431.29690619 21.20974431 431.29690619 22.25388343 431.29617717 C27.05376547 431.29401566 31.85353713 431.30380302 36.6533947 431.3183918 C43.11888666 431.33776954 49.58402469 431.33080086 56.04950142 431.3061924 C58.42144156 431.30118168 60.79341733 431.30468091 63.16532898 431.31734085 C66.40539013 431.33326551 69.64390748 431.31832414 72.88389587 431.29566956 C73.82077348 431.30750528 74.75765109 431.31934101 75.72291893 431.3315354 C82.02666502 431.242094 86.36591588 429.78768841 91.21386719 425.66748047 C94.57319951 420.95078716 94.63767522 416.65700466 94.58276367 411.0793457 C94.58653015 410.23794037 94.59029663 409.39653503 94.59417725 408.52963257 C94.60059078 406.71106007 94.60029753 404.89245403 94.59399223 403.07388115 C94.58486042 400.19437702 94.59512875 397.315521 94.61061096 394.43605042 C94.65065962 386.25254274 94.65190998 378.06908743 94.6496582 369.88549805 C94.64960712 364.87287285 94.66876312 359.86059906 94.69899178 354.84807014 C94.70981858 352.01334606 94.69768761 349.17929181 94.68516541 346.34458923 C94.69406913 344.60512631 94.70414328 342.86566884 94.71557617 341.1262207 C94.70583267 340.3401091 94.69608917 339.5539975 94.68605042 338.74406433 C94.73506239 335.00709431 95.07953244 332.87652031 97.12001038 329.7013092 C99.8592622 327.04058807 100.72894991 326.71238022 104.58886719 326.35498047 C108.21386719 326.66748047 108.21386719 326.66748047 110.58886719 328.54248047 C113.62938959 332.51854822 113.36816047 335.88486588 113.375 340.72216797 C113.3799649 341.55495773 113.38492981 342.3877475 113.39004517 343.24577332 C113.40469239 346.0113507 113.41147562 348.7768706 113.41699219 351.54248047 C113.42274476 353.46622723 113.42850248 355.38997397 113.43426514 357.3137207 C113.4447846 361.35563423 113.45062001 365.39752783 113.45410156 369.43945312 C113.45956602 374.59962425 113.48354599 379.7595288 113.51207352 384.9196167 C113.53077736 388.89866887 113.53590977 392.87765809 113.53743744 396.85675049 C113.54045074 398.75760341 113.54843423 400.65845558 113.56162262 402.55926514 C113.6488023 416.09900642 113.43195096 427.86629101 104.21386719 438.66748047 C95.86797649 446.62698734 87.89911889 449.12545956 76.60037231 449.05516052 C75.0326186 449.06323883 75.0326186 449.06323883 73.43319309 449.07148033 C69.94345953 449.08574706 66.45410598 449.07865915 62.96435547 449.0715332 C60.45726212 449.07723744 57.95017137 449.0842019 55.44308472 449.09233093 C49.34737916 449.10840972 43.2518131 449.11036401 37.15609278 449.10511803 C32.19926481 449.10107029 27.24246724 449.10252704 22.28564072 449.10786629 C21.57911939 449.10861471 20.87259806 449.10936313 20.14466699 449.11013423 C18.70918457 449.11166577 17.27370215 449.11320412 15.83821975 449.1147492 C2.38757126 449.12846555 -11.06301901 449.1230428 -24.51366617 449.11156399 C-36.80579317 449.10163391 -49.09776959 449.11456986 -61.38987337 449.13849818 C-74.02598924 449.16290992 -86.66203505 449.17249187 -99.29817402 449.16584545 C-106.38655992 449.16235765 -113.47483008 449.16455611 -120.56319809 449.18209648 C-127.22978491 449.19838915 -133.89603882 449.19360463 -140.56263351 449.17479134 C-143.00630132 449.1711067 -145.44999044 449.17421019 -147.89363861 449.18467712 C-151.23564601 449.19789671 -154.57670365 449.18632968 -157.91867065 449.16868591 C-158.88016805 449.17829092 -159.84166544 449.18789593 -160.83229911 449.19779199 C-171.337157 449.08408873 -179.02369348 445.36207694 -186.58300781 438.18310547 C-191.74015269 432.29445068 -194.90555433 425.25915565 -194.92035389 417.42520905 C-194.92704066 415.78574554 -194.92704066 415.78574554 -194.93386251 414.11316156 C-194.93367814 412.90764564 -194.93349378 411.70212972 -194.93330383 410.46008301 C-194.93698052 409.18304552 -194.94065721 407.90600802 -194.94444531 406.59027243 C-194.95446939 403.03819148 -194.95818277 399.48612743 -194.96083462 395.93403435 C-194.96473659 392.10561275 -194.97431516 388.27720455 -194.98304749 384.4487915 C-195.00281725 375.19814937 -195.01287978 365.94750614 -195.02177528 356.69684815 C-195.02615824 352.33990549 -195.03152512 347.98296404 -195.03676414 343.62602234 C-195.05377864 329.14050804 -195.0682718 314.6549945 -195.07551289 300.16947174 C-195.07742277 296.40969339 -195.0793431 292.64991505 -195.08129883 288.89013672 C-195.08202444 287.48843004 -195.08202444 287.48843004 -195.08276471 286.05840605 C-195.09106116 270.92785166 -195.11639058 255.79737643 -195.14887951 240.66685659 C-195.18196828 225.13016641 -195.19996338 209.59351642 -195.20315713 194.05679083 C-195.20532078 185.33458901 -195.21404801 176.61250254 -195.2396183 167.89033508 C-195.26135034 160.46023219 -195.26936352 153.03027266 -195.25965152 145.60014158 C-195.25511373 141.81139736 -195.25696218 138.02294878 -195.27641296 134.2342453 C-195.29735415 130.11953909 -195.28703699 126.00548546 -195.27388 121.89074707 C-195.28484925 120.70307692 -195.2958185 119.51540677 -195.30712014 118.29174662 C-195.21866733 106.81018245 -192.29683013 98.1614434 -184.30175781 89.83544922 C-178.00403225 84.40806151 -170.92092169 81.57754738 -162.66235352 81.4621582 C-161.40127274 81.44221298 -160.14019196 81.42226776 -158.84089661 81.40171814 C-157.46457034 81.38473513 -156.08824279 81.36785628 -154.71191406 81.35107422 C-153.30372007 81.3304985 -151.89553216 81.30950187 -150.48735046 81.2881012 C-146.78352801 81.23294425 -143.0796504 81.18350693 -139.37573242 81.13525391 C-135.595165 81.08499226 -131.81467752 81.02933055 -128.03417969 80.97412109 C-120.6182318 80.86661755 -113.20221736 80.76515533 -105.78613281 80.66748047 C-105.99494583 79.988069 -106.20375885 79.30865753 -106.41889954 78.60865784 C-106.82751472 77.26601112 -106.82751472 77.26601112 -107.24438477 75.89624023 C-107.51507278 75.01057877 -107.7857608 74.1249173 -108.06465149 73.2124176 C-113.09123792 55.48174869 -109.28709882 36.81277867 -100.75097656 20.91357422 C-91.99319143 6.44494708 -79.55396885 -3.40490871 -63.78613281 -9.33251953 C-62.89152344 -9.67154297 -61.99691406 -10.01056641 -61.07519531 -10.35986328 C-40.98486461 -16.60571108 -16.8381922 -12.56189899 0 0 Z " fill="#010100" transform="translate(245.7861328125,63.33251953125)"/>
<path d="M0 0 C9.55297785 6.38175612 16.25143394 14.95173036 19.47265625 26.0390625 C21.89087547 38.81028273 20.49405623 51.00833685 13.10997009 61.89778137 C9.04519461 67.64500913 4.33537476 72.51038713 -0.65795898 77.4519043 C-1.62200484 78.41674325 -2.58539513 79.3822376 -3.54818726 80.34832764 C-6.13857667 82.94380187 -8.73810083 85.52993911 -11.33962893 88.11424232 C-14.07563715 90.83508236 -16.80340913 93.56415743 -19.53224182 96.29219055 C-24.11259489 100.86886463 -28.69851966 105.43989144 -33.28833008 110.00708008 C-39.16071652 115.85058016 -45.02380041 121.70332215 -50.88398647 127.55905437 C-55.94823712 132.61931 -61.01673191 137.67530857 -66.08590817 142.73062921 C-67.70303208 144.343677 -69.31958626 145.95729408 -70.93606377 147.57098961 C-73.48554359 150.11553445 -76.03767442 152.65739263 -78.59179306 155.19728088 C-79.96347411 156.56236592 -81.33282158 157.92979458 -82.70207214 159.2973175 C-87.02512882 163.59077136 -91.41998782 167.71381183 -96.0373354 171.68768597 C-99.14405567 174.43984098 -102.00900802 177.41413224 -104.88720703 180.40161133 C-106.23026942 181.78428658 -107.57355133 183.16674862 -108.91702271 184.54902649 C-109.61742802 185.27139307 -110.31783333 185.99375965 -111.03946304 186.73801613 C-115.60648559 191.43717494 -120.20676244 196.10385578 -124.80012703 200.77724171 C-128.80711705 204.8577661 -132.80264947 208.94837626 -136.77490234 213.06274414 C-140.64752486 217.07258117 -144.55032579 221.05084304 -148.4738121 225.0109005 C-149.94598252 226.50737772 -151.40757335 228.01435488 -152.85709 229.53278542 C-163.2576408 240.41070315 -173.43982217 246.85624507 -187.44063187 252.36696053 C-190.72201413 253.66378237 -193.93814905 255.08359624 -197.16650391 256.50708008 C-199.25697065 257.39808891 -201.34859494 258.28638715 -203.44140625 259.171875 C-205.1499025 259.89862679 -205.1499025 259.89862679 -206.89291382 260.64006042 C-210.43664648 262.1467062 -213.98196905 263.64956675 -217.52734375 265.15234375 C-219.92718589 266.17228478 -222.3269259 267.19246612 -224.7265625 268.21289062 C-236.66598692 273.28649027 -236.66598692 273.28649027 -240.90020752 275.06924438 C-243.00103185 275.95837994 -245.09698397 276.85907555 -247.18914795 277.7684021 C-248.25385315 278.22598907 -249.31855835 278.68357605 -250.41552734 279.1550293 C-251.37268646 279.57100876 -252.32984558 279.98698822 -253.31600952 280.41557312 C-257.16434552 281.7908416 -259.07339998 281.77569766 -262.90234375 280.33984375 C-265.40234375 278.27734375 -265.40234375 278.27734375 -266.90234375 275.33984375 C-266.67164833 268.18828574 -264.09299985 262.44985992 -261.1953125 255.984375 C-260.48007164 254.35292038 -260.48007164 254.35292038 -259.75038147 252.68850708 C-258.20670784 249.17202516 -256.64886188 245.66204643 -255.08984375 242.15234375 C-252.96926337 237.34971685 -250.85468421 232.54446867 -248.7421875 227.73828125 C-248.22604889 226.56625656 -247.70991028 225.39423187 -247.1781311 224.18669128 C-244.36518148 217.77297456 -241.63806844 211.34136023 -239.09375 204.81640625 C-238.69672127 203.80772743 -238.69672127 203.80772743 -238.29167175 202.77867126 C-237.14972904 199.86938543 -236.03538682 196.95495783 -234.96948242 194.0168457 C-232.77158372 188.36634415 -230.18053912 184.23709053 -226.02716064 179.79815674 C-225.30421621 179.02386302 -225.30421621 179.02386302 -224.56666684 178.23392701 C-218.84573493 172.14651632 -212.93454152 166.24727219 -207.01464844 160.35449219 C-205.76309105 159.1048597 -204.51176537 157.8549951 -203.26065063 156.60491943 C-200.59127212 153.93867337 -197.92035582 151.2739814 -195.24819183 148.61052704 C-191.01676531 144.39275137 -186.78927079 140.17104886 -182.56231689 135.9487915 C-173.59530554 126.99282207 -164.62404517 118.0411145 -155.65234375 109.08984375 C-145.94936667 99.40893787 -136.24715118 89.72727559 -126.54980779 80.04072595 C-122.35332086 75.84919951 -118.15441368 71.66011783 -113.95358992 67.47293806 C-111.33822795 64.86506599 -108.72496696 62.25509623 -106.1122551 59.6445694 C-104.90665806 58.44083466 -103.7002018 57.23795973 -102.49279404 56.03604126 C-96.91829456 50.48607757 -91.37339028 44.95304993 -86.28557205 38.94449234 C-84.27661023 36.61394593 -82.11041693 34.48100562 -79.90234375 32.33984375 C-81.40083808 28.52549454 -83.45762814 26.5319355 -86.90234375 24.33984375 C-89.77106243 23.42155581 -89.77106243 23.42155581 -92.90234375 24.33984375 C-99.53899352 29.10762809 -105.10224622 35.48058254 -110.79402351 41.30918503 C-113.53203714 44.10888668 -116.28616038 46.89270575 -119.03710938 49.6796875 C-122.51680038 53.20733046 -125.99164705 56.73942727 -129.45141602 60.28662109 C-132.26809506 63.17363213 -135.09927524 66.04569634 -137.94061089 68.90843582 C-139.0149153 69.99629005 -140.08379785 71.08952759 -141.1469593 72.18827438 C-142.63254862 73.7222674 -144.13597238 75.23644051 -145.64477539 76.74755859 C-146.4933461 77.61246918 -147.34191681 78.47737976 -148.21620178 79.36849976 C-151.52126723 81.7940681 -153.83339782 82.2187853 -157.90234375 82.33984375 C-160.70423821 80.57343203 -162.41759286 79.30934553 -163.90234375 76.33984375 C-164.40234375 73.71484375 -164.40234375 73.71484375 -163.90234375 70.33984375 C-158.76144283 63.03238251 -151.58319658 56.85702497 -145.2734375 50.54296875 C-144.15431257 49.42062314 -143.03525972 48.29820564 -141.91627502 47.17572021 C-139.58405024 44.83754514 -137.2498063 42.50140762 -134.91430664 40.16650391 C-131.93139029 37.18368958 -128.95543985 34.19402727 -125.9811697 31.20259476 C-123.6776851 28.887968 -121.36964578 26.57792443 -119.0603199 24.26912689 C-117.96116279 23.16879532 -116.8636138 22.06685475 -115.76775932 20.96323395 C-114.23459413 19.42021279 -112.69515144 17.88372505 -111.15405273 16.34863281 C-110.28248032 15.47563538 -109.4109079 14.60263794 -108.51292419 13.70318604 C-101.60655175 7.45088989 -94.36903076 4.66635373 -85.00390625 4.96484375 C-77.03152068 6.38742556 -71.06944954 11.40280498 -65.90234375 17.33984375 C-62.6421613 14.58680079 -59.42551458 11.8398866 -56.33984375 8.890625 C-40.58180025 -6.08399304 -19.57702186 -11.1981619 0 0 Z " fill="#010101" transform="translate(440.90234375,196.66015625)"/>
<path d="M0 0 C2.23155067 1.06579371 3.63562713 2.33481388 5.37603569 4.09470463 C6.39664085 5.11564968 6.39664085 5.11564968 7.4378643 6.15721989 C8.52245934 7.2650407 8.52245934 7.2650407 9.62896538 8.39524174 C10.75247398 9.52511761 10.75247398 9.52511761 11.89867973 10.67781925 C14.28986082 13.08579593 16.67040203 15.50399294 19.05084038 17.92258549 C20.66994215 19.55673286 22.2897257 21.19020504 23.91021538 22.82297611 C27.88170454 26.82754632 31.84389596 30.84114916 35.80084038 34.86008549 C30.31510051 41.53754182 24.2180874 47.5768344 18.10406303 53.67038822 C16.92071208 54.85345673 15.73758202 56.03674622 14.55465508 57.22023869 C11.3589999 60.41617958 8.16028119 63.60903799 4.96098566 66.80133414 C1.61197302 70.14407572 -1.73418896 73.48966846 -5.08065987 76.83495426 C-11.41082997 83.1620221 -17.74354384 89.48653749 -24.07718527 95.81013018 C-31.29077668 103.01252612 -38.50151295 110.21777763 -45.71201587 117.42326534 C-60.53789863 132.23870872 -75.3673468 147.05057888 -90.19915962 161.86008549 C-97.58085597 155.60550632 -97.58085597 155.60550632 -100.74774361 152.42502689 C-101.34783745 151.82485752 -101.94793129 151.22468815 -102.56620979 150.60633183 C-103.18629417 149.98108616 -103.80637856 149.35584049 -104.44525337 148.71164799 C-105.42921844 147.72556049 -105.42921844 147.72556049 -106.4330616 146.71955204 C-108.5033123 144.64375687 -110.57003613 142.56449122 -112.63665962 140.48508549 C-114.04983824 139.06688468 -115.46324756 137.64891372 -116.876894 136.23117924 C-120.32032027 132.77679772 -123.76059061 129.31930179 -127.19915962 125.86008549 C-121.74106098 119.23320359 -115.71060685 113.20173205 -109.65765572 107.12571049 C-108.49068827 105.950829 -107.32389926 104.77577026 -106.15727425 103.60054874 C-102.34943864 99.76668244 -98.5363152 95.93809895 -94.72259712 92.11008549 C-93.40705523 90.78917945 -92.09152003 89.46826674 -90.77599144 88.14734745 C-85.30838545 82.65815652 -79.83935864 77.17038779 -74.36660004 71.68633366 C-66.52955569 63.8330026 -58.70116175 55.97126674 -50.88440645 48.09773922 C-45.38046071 42.55518283 -39.86704745 37.02215998 -34.34641325 31.49622631 C-31.05036696 28.19651955 -27.75867154 24.89272504 -24.4770031 21.57871342 C-21.39667059 18.4684504 -18.30484303 15.37010704 -15.20360184 12.28069592 C-14.06564197 11.14295792 -12.93198267 10.00090041 -11.80290604 8.85434628 C-10.26567559 7.29461573 -8.71397115 5.75092502 -7.15750313 4.21042728 C-6.29143629 3.3410503 -5.42536945 2.47167332 -4.53305817 1.57595158 C-2.19915962 -0.13991451 -2.19915962 -0.13991451 0 0 Z " fill="#02A7F1" transform="translate(358.1991596221924,259.1399145126343)"/>
<path d="M0 0 C3.54827666 2.80071689 6.80223157 5.80777363 10 9 C10.58910156 9.5775 11.17820312 10.155 11.78515625 10.75 C20.97050247 20.52264458 23.61136468 33.66023301 23.31640625 46.6328125 C22.6837626 58.75098242 17.22021649 68.78818049 10.0625 78.25 C4.4257722 85.84036642 0.55683344 93.65899938 -1 103 C-7.27 103 -13.54 103 -20 103 C-20.029729 100.93335083 -20.029729 100.93335083 -20.06005859 98.82495117 C-20.13604788 93.72027092 -20.22477559 88.61587822 -20.31738281 83.51147461 C-20.35570017 81.30092032 -20.39054814 79.09030308 -20.421875 76.87963867 C-20.46746552 73.70468629 -20.52547003 70.53016828 -20.5859375 67.35546875 C-20.59748871 66.36475876 -20.60903992 65.37404877 -20.62094116 64.35331726 C-20.64081085 63.43258926 -20.66068054 62.51186127 -20.68115234 61.56323242 C-20.69447601 60.7527092 -20.70779968 59.94218597 -20.7215271 59.10710144 C-20.88223777 56.69899809 -20.88223777 56.69899809 -23 54 C-27.01832694 52.8245113 -27.01832694 52.8245113 -31 53 C-33.82293849 55.04552666 -35.71549004 56.69315885 -36.47727966 60.19229126 C-36.67518989 62.91541799 -36.7182334 65.60170391 -36.70703125 68.33203125 C-36.72215256 69.32377853 -36.73727386 70.31552582 -36.75285339 71.33732605 C-36.79574202 74.49594845 -36.80456975 77.65361539 -36.8125 80.8125 C-36.83564332 82.95770771 -36.86100831 85.10289269 -36.88867188 87.24804688 C-36.95153617 92.49878243 -36.98386231 97.74892132 -37 103 C-42.94 103 -48.88 103 -55 103 C-55.515625 101.2675 -56.03125 99.535 -56.5625 97.75 C-59.50602898 88.94014212 -64.15695123 81.45751314 -69.625 74 C-78.98459907 60.99353012 -80.81114747 46.40175556 -78.5390625 30.84375 C-74.63566391 16.69967039 -65.56522551 5.32525913 -53 -2 C-35.82726311 -10.38064209 -16.42659564 -10.60118952 0 0 Z " fill="#FDDA00" transform="translate(233,76)"/>
<path d="M0 0 C8.35893414 4.25279105 12.60947187 9.95341562 15.5625 18.8125 C16.81598427 27.17435079 14.38327698 33.99189871 9.5625 40.8125 C4.68802108 46.61664902 -0.863307 51.80757195 -6.3125 57.0625 C-7.78003749 58.49988261 -9.2461957 59.93867485 -10.7109375 61.37890625 C-14.27076721 64.8732233 -17.84870918 68.34794391 -21.4375 71.8125 C-24.48331486 70.45136987 -26.57589026 68.91919904 -28.92089844 66.55615234 C-29.91147247 65.56535172 -29.91147247 65.56535172 -30.92205811 64.55453491 C-31.62324768 63.84302277 -32.32443726 63.13151062 -33.046875 62.3984375 C-33.77368469 61.66879791 -34.50049438 60.93915833 -35.24932861 60.18740845 C-37.56679198 57.8587612 -39.8771995 55.52325174 -42.1875 53.1875 C-43.75865444 51.60631347 -45.33026371 50.02557875 -46.90234375 48.4453125 C-50.75268653 44.5729331 -54.59726117 40.69489829 -58.4375 36.8125 C-56.51009203 32.61126745 -53.63592836 29.7050337 -50.3984375 26.47265625 C-49.79875153 25.86868515 -49.19906555 25.26471405 -48.58120728 24.6424408 C-47.31108598 23.36658357 -46.03834506 22.09332958 -44.76318359 20.82250977 C-42.83149395 18.89396304 -40.91346224 16.95253789 -38.99609375 15.00976562 C-37.7560208 13.76741766 -36.51515959 12.52585591 -35.2734375 11.28515625 C-34.70853607 10.71104507 -34.14363464 10.1369339 -33.56161499 9.54542542 C-24.23293653 0.32172281 -13.17461771 -4.51920026 0 0 Z " fill="#01A6F1" transform="translate(428.4375,210.1875)"/>
<path d="M0 0 C3.41059403 1.60535287 5.61792484 3.40518901 8.25 6.125 C8.95640625 6.84945313 9.6628125 7.57390625 10.390625 8.3203125 C11.18726563 9.15175781 11.18726563 9.15175781 12 10 C6.51426014 16.67745633 0.41724702 22.71674891 -5.69677734 28.81030273 C-6.8801283 29.99337124 -8.06325836 31.17666073 -9.2461853 32.3601532 C-12.44184048 35.55609409 -15.64055918 38.74895251 -18.83985472 41.94124866 C-22.18886736 45.28399024 -25.53502933 48.62958297 -28.88150024 51.97486877 C-35.21167035 58.30193661 -41.54438422 64.626452 -47.87802565 70.95004469 C-55.09161706 78.15244063 -62.30235333 85.35769214 -69.51285625 92.56317985 C-84.33873901 107.37862323 -99.16818718 122.19049339 -114 137 C-115.11677492 136.05052441 -116.23244654 135.09975103 -117.34765625 134.1484375 C-117.96906494 133.61911621 -118.59047363 133.08979492 -119.23071289 132.54443359 C-121.2481965 130.78334607 -123.14412108 128.93011408 -125 127 C-123.41956625 123.17367115 -121.00170566 120.75526634 -118.0899353 117.84942627 C-117.33395662 117.09088431 -117.33395662 117.09088431 -116.56270564 116.31701827 C-114.87383115 114.62485125 -113.17791096 112.93992866 -111.48193359 111.25488281 C-110.26940178 110.04291516 -109.05731023 108.8305069 -107.84562683 107.61769104 C-104.55485933 104.32634924 -101.25795754 101.04121448 -97.95993376 97.75714588 C-94.51436626 94.32407266 -91.0744538 90.88534276 -87.63394165 87.44720459 C-81.11792783 80.93740936 -74.59683207 74.43272958 -68.07390273 67.92986465 C-60.64805085 60.52635995 -53.22787062 53.11718201 -45.80816531 45.7075181 C-30.54508675 30.46535013 -15.2748869 15.23033366 0 0 Z " fill="#0276BA" transform="translate(382,284)"/>
<path d="M0 0 C1.39177629 -0.00350385 2.78354856 -0.00916542 4.17530823 -0.01681519 C7.94403091 -0.03103399 11.71202142 -0.01403178 15.48067403 0.00946999 C19.4287989 0.02961178 23.37689436 0.02369777 27.32505798 0.0213623 C33.95348147 0.02141583 40.58161949 0.04114887 47.20996094 0.07324219 C54.86949945 0.11014848 62.52866434 0.11891524 70.18828017 0.11194468 C77.56305036 0.10563659 84.93769267 0.1163986 92.31243706 0.13591003 C95.44829572 0.14407731 98.58408895 0.14679483 101.71995735 0.1452179 C105.41287217 0.14433807 109.10543268 0.15858117 112.79825401 0.18444443 C114.79750207 0.19500627 116.79681067 0.19093747 118.79608154 0.18643188 C119.98909378 0.19778168 121.18210602 0.20913147 122.41127014 0.2208252 C123.96340257 0.22641827 123.96340257 0.22641827 125.54689121 0.23212433 C128.81737169 0.6770423 130.7120915 1.67850254 133.36303711 3.61523438 C134.93239305 6.75394625 134.71504814 9.15379259 134.36303711 12.61523438 C132.71811609 15.2700398 132.0432007 16.1967543 129.36303711 17.61523438 C124.80951138 18.37981259 120.25958144 18.29916245 115.65600586 18.26220703 C114.2446683 18.26898563 112.83333959 18.27789013 111.42202759 18.28875732 C107.59544262 18.31152922 103.76953253 18.3027236 99.94293594 18.2868619 C95.93606006 18.27419173 91.92924147 18.2859461 87.92236328 18.29379272 C81.19382363 18.30288608 74.4655585 18.2909098 67.73706055 18.26708984 C59.96097025 18.23987893 52.18553544 18.24869333 44.40946102 18.27622187 C37.72987481 18.29892107 31.05048578 18.30210914 24.37087345 18.28902853 C20.38283101 18.28123837 16.39509655 18.28018014 12.40707397 18.29671097 C8.65737645 18.31116857 4.90852293 18.30111189 1.15891647 18.27223969 C-0.21609725 18.26563555 -1.59118217 18.26751525 -2.96616745 18.27855301 C-14.65050595 18.36369285 -14.65050595 18.36369285 -17.95068359 15.29354858 C-20.21582895 11.69582251 -20.4564599 9.78721913 -19.63696289 5.61523438 C-14.29031608 -0.92645413 -7.96119213 -0.0813255 0 0 Z " fill="#030202" transform="translate(113.636962890625,306.384765625)"/>
<path d="M0 0 C1.46671394 -0.01073296 1.46671394 -0.01073296 2.96305847 -0.02168274 C6.1913441 -0.03857474 9.41824208 -0.01916337 12.64648438 0.00219727 C14.89180618 0.00136862 17.13712793 -0.0010906 19.38244629 -0.00511169 C24.08669305 -0.00797006 28.7904638 0.00673587 33.49462891 0.03417969 C39.52413746 0.06826195 45.55279476 0.0622443 51.58234406 0.04351711 C56.21835421 0.03294781 60.85416634 0.04188444 65.49015808 0.05690193 C67.7133068 0.06208467 69.9364762 0.06160084 72.15962219 0.05535698 C75.26702328 0.04990582 78.37320643 0.07027787 81.48046875 0.09765625 C82.39906174 0.09113037 83.31765472 0.08460449 84.26408386 0.07788086 C88.38821615 0.13965691 90.67935393 0.29598516 94.28381348 2.44960022 C97.0215001 5.50225233 97.31155197 7.56600032 97.24023438 11.63110352 C95.15398098 15.05851981 94.06580327 16.35591388 90.24023438 17.63110352 C88.86597097 17.72718854 87.4875953 17.77020416 86.11000061 17.77827454 C85.27024185 17.78542984 84.43048309 17.79258514 83.5652771 17.79995728 C82.64727325 17.80264618 81.72926941 17.80533508 80.78344727 17.80810547 C79.32939232 17.81796227 79.32939232 17.81796227 77.84596252 17.82801819 C74.6349378 17.84774614 71.42395976 17.85941068 68.21289062 17.86938477 C67.11737822 17.87346029 66.02186581 17.87753582 64.89315605 17.88173485 C59.09845035 17.90259016 53.30376832 17.91689608 47.5090332 17.92626953 C41.51534414 17.93735257 35.52202442 17.97177604 29.52846622 18.01144123 C24.92601311 18.03754002 20.32364908 18.04595521 15.72112846 18.04955101 C13.51107721 18.05443185 11.30103031 18.06608809 9.0910511 18.084589 C6.00253778 18.10884415 2.9149947 18.10804061 -0.17358398 18.10107422 C-1.54755341 18.12028931 -1.54755341 18.12028931 -2.94927979 18.13989258 C-9.15012387 18.08879049 -9.15012387 18.08879049 -12.29640198 15.72673035 C-14.77501331 12.17720633 -15.27241843 9.98865234 -14.75976562 5.63110352 C-10.57099667 -0.19145235 -6.63142404 -0.08440728 0 0 Z " fill="#010101" transform="translate(108.759765625,349.368896484375)"/>
<path d="M0 0 C12.16334063 2.15801205 20.29139784 7.30649074 29 16 C29.58910156 16.5775 30.17820313 17.155 30.78515625 17.75 C39.97050247 27.52264458 42.61136468 40.66023301 42.31640625 53.6328125 C41.6837626 65.75098242 36.22021649 75.78818049 29.0625 85.25 C23.4257722 92.84036642 19.55683344 100.65899938 18 110 C12.39 110 6.78 110 1 110 C2.2797757 101.04157013 5.01692773 95.16018836 10.875 88.3125 C22.0896346 74.84644254 25.17543672 59.11188401 24 42 C22.22969212 27.46945315 13.82876588 13.30687477 2.5625 4.125 C1.716875 3.42375 0.87125 2.7225 0 2 C0 1.34 0 0.68 0 0 Z " fill="#FBBF07" transform="translate(214,69)"/>
<path d="M0 0 C0.78419815 -0.0071553 1.5683963 -0.01431061 2.37635803 -0.02168274 C4.96569269 -0.03857641 7.5532975 -0.01916479 10.14257812 0.00219727 C11.94332014 0.00136862 13.74406209 -0.00109059 15.5447998 -0.00511169 C19.31769596 -0.00797014 23.08999862 0.00673573 26.86279297 0.03417969 C31.69862734 0.0682628 36.53340041 0.06224485 41.36928558 0.04351711 C45.08739057 0.03294779 48.80524866 0.04188427 52.52333069 0.05690193 C54.30631273 0.06208472 56.08932055 0.06160076 57.87229919 0.05535698 C60.36464871 0.04990547 62.85547977 0.07027603 65.34765625 0.09765625 C66.08440079 0.09113037 66.82114532 0.08460449 67.58021545 0.07788086 C70.95669397 0.14094573 72.86501328 0.40583339 75.62390137 2.41835022 C77.48019428 5.06848723 77.73489129 7.33167158 77.90039062 10.53344727 C76.72826747 13.91748026 74.14819783 15.8263381 71.17382812 17.63110352 C68.40483718 18.11279892 66.25808406 18.30884211 63.50366211 18.26220703 C62.75979248 18.26936234 62.01592285 18.27651764 61.24951172 18.28388977 C58.80567867 18.30071457 56.3636962 18.28141492 53.91992188 18.26000977 C52.21411488 18.26083896 50.50830796 18.26330025 48.80250549 18.26731873 C45.23405805 18.27017233 41.66623981 18.25551735 38.09790039 18.22802734 C33.52900135 18.19391893 28.96122505 18.19997526 24.392272 18.21868992 C20.87228572 18.22926829 17.35255981 18.22031502 13.83259773 18.2053051 C12.14813066 18.20013069 10.46363631 18.2005961 8.7791729 18.20685005 C6.42372206 18.21231365 4.06986832 18.19189414 1.71459961 18.16455078 C0.67569328 18.1743396 0.67569328 18.1743396 -0.38420105 18.18432617 C-5.10886701 18.09127629 -7.50049475 16.95750863 -10.82617188 13.63110352 C-12.25279406 10.77785914 -12.13651055 8.79655803 -11.82617188 5.63110352 C-8.77986843 0.33673285 -5.73198663 -0.09096713 0 0 Z " fill="#060504" transform="translate(105.826171875,392.368896484375)"/>
<path d="M0 0 C4.26705487 1.65494286 7.1371993 4.84913041 10.296875 8.03125 C10.89050842 8.62296997 11.48414185 9.21468994 12.09576416 9.82434082 C13.34543718 11.07265581 14.59259992 12.32348823 15.83740234 13.57666016 C17.75007952 15.50007997 19.67323119 17.41256099 21.59765625 19.32421875 C22.81053798 20.53842139 24.02279952 21.75324393 25.234375 22.96875 C25.81241882 23.54274536 26.39046265 24.11674072 26.98602295 24.70812988 C31 28.77006566 31 28.77006566 31 31 C24.09670975 33.97665178 17.19140282 36.94858593 10.28466797 39.91723633 C7.93491572 40.92786675 5.58562869 41.9395795 3.23681641 42.95239258 C-0.13778145 44.40730475 -3.51402866 45.85832686 -6.890625 47.30859375 C-8.46738007 47.98987587 -8.46738007 47.98987587 -10.07598877 48.68492126 C-11.54706085 49.31546165 -11.54706085 49.31546165 -13.04785156 49.95874023 C-13.90944885 50.32958237 -14.77104614 50.7004245 -15.65875244 51.08250427 C-17.76496045 51.90789194 -19.79403489 52.51401785 -22 53 C-15.02819463 35.18075833 -7.51449175 17.59506205 0 0 Z " fill="#6E6E6E" transform="translate(221,400)"/>
<path d="M0 0 C1.28684692 -0.00478363 2.57369385 -0.00956726 3.89953613 -0.01449585 C6.61643669 -0.02184467 9.33251221 -0.01122854 12.04931641 0.01220703 C15.51984582 0.04069653 18.98844187 0.02428142 22.45890045 -0.00565529 C25.78525242 -0.02813966 29.11109321 -0.01236534 32.4375 0 C33.67826294 -0.01012115 34.91902588 -0.02024231 36.1973877 -0.03067017 C45.79277215 0.09954364 45.79277215 0.09954364 49.50585938 2.98681641 C51.71875 5.6640625 51.71875 5.6640625 52.40625 9.1640625 C51.74916893 12.50920251 51.14380791 14.30116071 48.64892578 16.62957764 C44.01358566 19.11390535 38.17746284 18.36816907 33.0625 18.328125 C31.71398482 18.33149626 30.3654726 18.33635147 29.01696777 18.34262085 C26.19574957 18.34997791 23.37532489 18.33932645 20.55419922 18.31591797 C16.94568472 18.28742836 13.33902952 18.30383896 9.73058319 18.33378029 C6.9474294 18.35188636 4.16471331 18.34608065 1.38154602 18.33314133 C-0.59318251 18.32820454 -2.56792835 18.34333582 -4.54260254 18.35879517 C-14.49813325 18.22855471 -14.49813325 18.22855471 -17.59179688 15.34130859 C-19.86142896 11.7446633 -20.10098687 9.83726837 -19.28125 5.6640625 C-13.97280721 -0.75830992 -7.88343346 -0.06430676 0 0 Z " fill="#030302" transform="translate(113.28125,434.3359375)"/>
<path d="M0 0 C9.1016585 -0.1394668 18.20294512 -0.24585557 27.30544186 -0.31087303 C31.53287126 -0.34209001 35.75956575 -0.38438316 39.98657227 -0.45263672 C44.07151496 -0.51817813 48.15575411 -0.55377838 52.24118233 -0.56926346 C53.79407377 -0.58028803 55.34692984 -0.60181653 56.89951897 -0.63438034 C65.05294114 -0.79847505 71.70931092 -0.79365926 78.41896057 4.37850952 C81.98744556 8.03829455 82.86651896 12.37701017 83.9375 17.1875 C85.0284458 21.10207021 85.81237509 22.58513264 89 25 C90.485 25.495 90.485 25.495 92 26 C92 30.95 92 35.9 92 41 C90.700625 41.185625 89.40125 41.37125 88.0625 41.5625 C79.76255592 43.41272301 73.99649309 49.72823066 68.3125 55.71484375 C67 57 67 57 66 57 C65.99453156 56.14341797 65.99453156 56.14341797 65.98895264 55.26953125 C65.94697912 49.29890984 65.87753048 43.32904655 65.79248047 37.35888672 C65.76434228 35.13402914 65.74309235 32.90907293 65.72900391 30.68408203 C65.70747568 27.47637697 65.66077322 24.26984897 65.609375 21.0625 C65.60814636 20.07572266 65.60691772 19.08894531 65.60565186 18.07226562 C65.58593323 17.13189453 65.5662146 16.19152344 65.54589844 15.22265625 C65.53701599 14.40547119 65.52813354 13.58828613 65.51898193 12.74633789 C64.93151857 8.95185848 64.93151857 8.95185848 61 2 C30.805 1.505 30.805 1.505 0 1 C0 0.67 0 0.34 0 0 Z " fill="#DDC29A" transform="translate(258,162)"/>
<path d="M0 0 C5.24555989 4.5170099 8.14422814 9.53828344 9.45703125 16.3828125 C10.02036226 24.53146107 6.56114289 31.75380191 1.40423584 37.90274048 C-3.1515791 42.88887737 -8.01520385 47.56345667 -12.875 52.25 C-14.34253749 53.68738261 -15.8086957 55.12617485 -17.2734375 56.56640625 C-20.83326721 60.0607233 -24.41120918 63.53544391 -28 67 C-31.63303084 65.30413874 -33.94549046 63.26199512 -36.75 60.375 C-37.54921875 59.55773437 -38.3484375 58.74046875 -39.171875 57.8984375 C-39.77515625 57.27195312 -40.3784375 56.64546875 -41 56 C-40.30704834 55.46568359 -39.61409668 54.93136719 -38.90014648 54.38085938 C-33.62385676 50.04931822 -28.84408263 45.18770864 -23.98950195 40.39453125 C-22.71288882 39.13942952 -21.43005787 37.89061859 -20.14086914 36.6484375 C-10.80607534 27.64989252 -2.23557396 18.7788213 -0.625 5.25 C-0.49351562 4.24453125 -0.36203125 3.2390625 -0.2265625 2.203125 C-0.15179688 1.47609375 -0.07703125 0.7490625 0 0 Z " fill="#0275B9" transform="translate(435,215)"/>
<path d="M0 0 C17.16 0 34.32 0 52 0 C52 5.61 52 11.22 52 17 C34.84 17 17.68 17 0 17 C0 11.39 0 5.78 0 0 Z " fill="#999999" transform="translate(179,196)"/>
<path d="M0 0 C17.16 0 34.32 0 52 0 C52 11 52 11 50.09594727 14.64208984 C45.82803397 17.89258323 42.69959604 17.83608955 37.46484375 17.7265625 C36.09133507 17.72805801 36.09133507 17.72805801 34.69007874 17.72958374 C32.75936171 17.72491354 30.82863128 17.70552181 28.89819336 17.67236328 C25.94339226 17.62509426 22.9921935 17.63125439 20.03710938 17.64453125 C18.15883266 17.6333791 16.28057113 17.61916019 14.40234375 17.6015625 C13.51997543 17.60338531 12.63760712 17.60520813 11.72850037 17.60708618 C5.61487045 17.46571547 5.61487045 17.46571547 2.47485352 15.08740234 C-1.46311077 9.51388891 0 9.29081851 0 0 Z " fill="#6B6B6B" transform="translate(179,230)"/>
<path d="M0 0 C0.91471573 -0.00478363 1.82943146 -0.00956726 2.77186584 -0.01449585 C4.70429201 -0.01789469 6.63677567 -0.0086933 8.5690918 0.01220703 C11.52198081 0.03894321 14.47105825 0.01247576 17.42382812 -0.01953125 C19.30339379 -0.01622655 21.18295708 -0.00981906 23.0625 0 C24.38301613 -0.01518173 24.38301613 -0.01518173 25.73020935 -0.03067017 C30.16413606 0.05377119 32.03958003 0.23485528 35.65844727 3.01806641 C37.59765625 5.6640625 37.59765625 5.6640625 38.16015625 8.6640625 C37.47407968 12.32313754 36.17031311 14.01573926 33.59765625 16.6640625 C30.31088245 18.3074494 26.66137331 17.87006103 23.046875 17.90234375 C22.19591751 17.9104155 21.34496002 17.91848724 20.46821594 17.92680359 C18.66511066 17.94064544 16.86197916 17.95136715 15.05883789 17.95922852 C12.30629558 17.97643039 9.55495787 18.02031299 6.80273438 18.06445312 C5.05079008 18.07458113 3.29883558 18.0830969 1.546875 18.08984375 C0.72587814 18.10735184 -0.09511871 18.12485992 -0.94099426 18.14289856 C-4.96108827 18.12770293 -6.92084273 17.969595 -10.39916992 15.76245117 C-12.78847695 13.25957562 -13.33277694 12.2901638 -13.71484375 8.8515625 C-12.86904645 0.22443004 -7.23474708 -0.08298575 0 0 Z " fill="#060504" transform="translate(107.40234375,264.3359375)"/>
<path d="M0 0 C0.89110474 -0.00478363 1.78220947 -0.00956726 2.70031738 -0.01449585 C4.57968924 -0.01789022 6.4591205 -0.00872012 8.33837891 0.01220703 C11.21000198 0.03898094 14.07771679 0.01244539 16.94921875 -0.01953125 C18.77865443 -0.01622707 20.60808769 -0.00982066 22.4375 0 C23.29283325 -0.01012115 24.1481665 -0.02024231 25.02941895 -0.03067017 C29.40224203 0.05501457 31.19626404 0.26013292 34.76367188 3.01806641 C36.71875 5.6640625 36.71875 5.6640625 37.28125 8.6640625 C36.59517343 12.32313754 35.29140686 14.01573926 32.71875 16.6640625 C29.37001458 18.33843021 25.59842138 17.87040297 21.9140625 17.90234375 C21.03853729 17.9104155 20.16301208 17.91848724 19.26095581 17.92680359 C17.40657533 17.94064471 15.55216937 17.95136674 13.69775391 17.95922852 C10.86181434 17.97645279 8.02703714 18.02033893 5.19140625 18.06445312 C3.39063358 18.07457905 1.58985099 18.08309547 -0.2109375 18.08984375 C-1.05896942 18.10735184 -1.90700134 18.12485992 -2.7807312 18.14289856 C-8.67925014 18.1211669 -8.67925014 18.1211669 -11.78564453 15.76245117 C-14.30742821 12.22429728 -14.79526014 10.03314868 -14.28125 5.6640625 C-10.15674164 0.02343461 -6.49178027 -0.07681721 0 0 Z " fill="#030202" transform="translate(108.28125,221.3359375)"/>
<path d="M0 0 C1.80550396 7.3853445 2.56516572 14.73026089 0 22 C-6.15063108 31.71470456 -16.12483693 39.82969593 -25 47 C-25.33 47 -25.66 47 -26 47 C-27.98815032 39.39912388 -29.24941853 31.65271862 -27 24 C-22.4091257 16.97884449 -8.86018137 0 0 0 Z " fill="#DDC29A" transform="translate(350,220)"/>
<path d="M0 0 C3.01778097 1.98569988 5.45509955 4.45027051 8 7 C8.73089844 7.66 9.46179688 8.32 10.21484375 9 C14.60099027 13.06095302 17.31603779 15.95833379 18 22 C17.3063376 25.05211457 16.43209832 26.5358944 14.3125 28.8125 C10.83345609 30.59903606 8.87788477 30.64631413 5 30 C1.97695881 28.01959955 -0.45185347 25.54814653 -3 23 C-3.81597656 22.26652344 -4.63195312 21.53304687 -5.47265625 20.77734375 C-9.14127517 17.38779569 -11.65159767 15.04520698 -13.25 10.25 C-12.96868999 6.59296993 -12.28013193 4.85016491 -10 2 C-6.15691236 -0.56205842 -4.5659696 -0.67366765 0 0 Z " fill="#000000" transform="translate(130,32)"/>
<path d="M0 0 C4.63235294 2.26470588 4.63235294 2.26470588 6 5 C6.90607735 11.56906077 6.90607735 11.56906077 4.71875 15.0234375 C2.89651769 17.11900465 0.98957618 19.06268285 -1 21 C-1.71800781 21.74121094 -2.43601562 22.48242188 -3.17578125 23.24609375 C-9.63563968 29.87128676 -9.63563968 29.87128676 -14.3125 30.3125 C-18.6673999 29.94344069 -20.14119546 29.27921697 -23 26 C-24.05650464 22.3682653 -24.55448129 20.17057161 -22.91015625 16.69921875 C-20.41683533 13.17593703 -17.51517435 10.26334452 -14.4375 7.25 C-13.84775391 6.66089844 -13.25800781 6.07179688 -12.65039062 5.46484375 C-8.37701471 1.23522254 -6.31572762 -0.49535119 0 0 Z " fill="#000000" transform="translate(286,32)"/>
<path d="M0 0 C0.83789062 -0.020625 1.67578125 -0.04125 2.5390625 -0.0625 C7.66918887 -0.09476495 11.17791172 0.40162949 15.625 3.25 C17.79722379 5.89444635 17.62393321 7.27987018 17.5 10.75 C16.5203321 14.66867159 15.75598951 15.79747955 12.625 18.25 C9.84765625 18.76757812 9.84765625 18.76757812 6.6875 18.78125 C4.97433594 18.78898437 4.97433594 18.78898437 3.2265625 18.796875 C2.03804688 18.78140625 0.84953125 18.7659375 -0.375 18.75 C-1.56351562 18.76546875 -2.75203125 18.7809375 -3.9765625 18.796875 C-5.11867188 18.79171875 -6.26078125 18.7865625 -7.4375 18.78125 C-8.48035156 18.77673828 -9.52320313 18.77222656 -10.59765625 18.76757812 C-14.04508158 18.12512544 -15.22883409 16.96864494 -17.375 14.25 C-18.10877162 11.18542441 -17.94334762 8.34181106 -17.375 5.25 C-13.14155291 -0.79778155 -6.70504053 0.04088439 0 0 Z " fill="#000000" transform="translate(307.375,109.75)"/>
<path d="M0 0 C0.83789062 -0.020625 1.67578125 -0.04125 2.5390625 -0.0625 C7.64983364 -0.09464321 11.23241534 0.33974267 15.625 3.25 C17.78251534 6.48627302 17.8786352 7.08578838 17.5 10.75 C17.43554688 11.5234375 17.37109375 12.296875 17.3046875 13.09375 C16.3874275 16.00367828 15.22019334 16.68515841 12.625 18.25 C8.50330397 18.89831433 4.35482208 18.75945507 0.1875 18.75 C-0.94494141 18.77835938 -2.07738281 18.80671875 -3.24414062 18.8359375 C-11.52409142 18.85545418 -11.52409142 18.85545418 -15.625 15.9375 C-17.93753447 12.38610778 -18.04427155 10.41435631 -17.375 6.25 C-14.57348621 1.64751305 -14.57348621 1.64751305 -11.50537109 0.62988281 C-7.6869807 -0.05100367 -3.86909619 0.02359205 0 0 Z " fill="#000000" transform="translate(102.375,109.75)"/>
<path d="M0 0 C3.03969955 0.62023281 4.36252924 1.93676018 6.125 4.43359375 C8.0499866 8.28356696 7.35337952 13.01118255 7.375 17.24609375 C7.395625 18.24447266 7.41625 19.24285156 7.4375 20.27148438 C7.48689701 29.53959794 7.48689701 29.53959794 4.125 33.43359375 C1.21553057 35.16354855 -0.5499642 35.44022713 -3.9375 35.37109375 C-7.90400331 34.10518844 -8.77443059 33.06185001 -10.875 29.43359375 C-11.4704465 25.42562024 -11.43292315 21.47856054 -11.375 17.43359375 C-11.39046875 16.35335938 -11.4059375 15.273125 -11.421875 14.16015625 C-11.39900785 9.52955751 -11.36365853 6.33128565 -9.125 2.21875 C-5.91812893 -0.32559042 -3.95259944 -0.21453254 0 0 Z " fill="#000000" transform="translate(206.875,-0.43359375)"/>
<path d="M0 0 C4.93793665 1.16186745 7.63880987 4.25896007 11.1875 7.75 C12.00476563 8.48347656 12.82203125 9.21695313 13.6640625 9.97265625 C17.32889677 13.36408225 19.83950121 15.70600363 21.4375 20.5 C21.15869304 24.12449044 20.43647561 25.91795664 18.1875 28.75 C14.8698006 30.4088497 11.74046275 30.54582598 8.1875 29.75 C5.11769722 27.67900228 2.73631235 25.10272607 0.25 22.375 C-0.42095703 21.67632812 -1.09191406 20.97765625 -1.78320312 20.2578125 C-7.66245676 14.07538199 -7.66245676 14.07538199 -8.1875 9.4375 C-7.8125 5.75 -7.8125 5.75 -5.6875 2.8125 C-2.8125 0.75 -2.8125 0.75 0 0 Z " fill="#050403" transform="translate(270.8125,176.25)"/>
<path d="M0 0 C2.5 1.5 2.5 1.5 4 4 C4.35507877 8.03264425 3.91852156 11.63811074 1.63134766 15.02929688 C-0.14353494 16.96480005 -1.98948795 18.73925967 -3.9375 20.5 C-4.58396484 21.11875 -5.23042969 21.7375 -5.89648438 22.375 C-10.29224889 26.53796702 -12.63608135 28.436657 -19.0234375 28.34375 C-21 28 -21 28 -23.5 25.875 C-25.3440701 22.3405323 -25.84682469 20.92618718 -25 17 C-22.97307204 14.02885094 -20.52891875 11.54731088 -18 9 C-16.81277344 7.77410156 -16.81277344 7.77410156 -15.6015625 6.5234375 C-7.54374748 -1.69083995 -7.54374748 -1.69083995 0 0 Z " fill="#040403" transform="translate(143,178)"/>
<path d="M0 0 C3.2586636 1.4264578 5.4024854 3.16704162 7.890625 5.6953125 C8.95410156 6.76845703 8.95410156 6.76845703 10.0390625 7.86328125 C10.76867187 8.60964844 11.49828125 9.35601562 12.25 10.125 C12.99507812 10.87910156 13.74015625 11.63320313 14.5078125 12.41015625 C16.3431342 14.26900772 18.1736191 16.13237005 20 18 C19 21 19 21 16.16430664 22.53393555 C14.91782677 23.07953924 13.66599939 23.6130266 12.41015625 24.13671875 C11.7504332 24.42102249 11.09071014 24.70532623 10.41099548 24.99824524 C9.01517261 25.59739791 7.61711219 26.19136044 6.21704102 26.78051758 C4.0700825 27.68430805 1.93018296 28.6033315 -0.20898438 29.52539062 C-1.56471853 30.10506942 -2.92082635 30.68387523 -4.27734375 31.26171875 C-4.9200975 31.53666672 -5.56285126 31.81161469 -6.2250824 32.09489441 C-10.76567657 34 -10.76567657 34 -13 34 C-12.32648095 29.76695021 -10.92947649 26.11569646 -9.27734375 22.16796875 C-9.01240616 21.53135818 -8.74746857 20.89474762 -8.47450256 20.23884583 C-7.63312896 18.21990579 -6.78542409 16.20369644 -5.9375 14.1875 C-5.36351111 12.81332689 -4.78993893 11.43897965 -4.21679688 10.06445312 C-2.81601516 6.70760648 -1.40954545 3.35317771 0 0 Z " fill="#999999" transform="translate(221,400)"/>
<path d="M0 0 C1.93359375 -0.03287109 1.93359375 -0.03287109 3.90625 -0.06640625 C8.32063566 0.70611124 9.78720788 2.06212307 12.5 5.5625 C13.05348638 9.43690468 12.79968563 12.34294012 10.5 15.5625 C5.25852147 19.01116877 -1.51958745 18.23326646 -7.5 17.5625 C-10.875 15.5625 -10.875 15.5625 -12.5 12.5625 C-13.20924097 9.47485613 -13.02019486 7.83972764 -12.5 4.5625 C-8.63086771 0.43055872 -5.54423182 -0.00554423 0 0 Z " fill="#050403" transform="translate(277.5,221.4375)"/>
<path d="M0 0 C5.61 0 11.22 0 17 0 C17.49328408 12.33210208 17.49328408 12.33210208 15.234375 15.390625 C12.24088536 17.54677488 10.48077662 17.57169496 6.90234375 17.3984375 C4.00233861 16.79104423 2.71691329 15.33500208 1 13 C-0.92572521 9.14854957 -0.04883218 4.19956748 0 0 Z " fill="#34434A" transform="translate(196,264)"/>
</svg>
