<?xml version="1.0" standalone="no"?>
<!DOCTYPE svg PUBLIC "-//W3C//DTD SVG 20010904//EN"
 "http://www.w3.org/TR/2001/REC-SVG-20010904/DTD/svg10.dtd">
<svg version="1.0" xmlns="http://www.w3.org/2000/svg"
 width="512.000000pt" height="512.000000pt" viewBox="0 0 512.000000 512.000000"
 preserveAspectRatio="xMidYMid meet">

<g transform="translate(0.000000,512.000000) scale(0.100000,-0.100000)"
fill="#000000" stroke="none">
<path d="M865 5111 c-145 -38 -233 -150 -243 -308 l-5 -83 -269 0 c-292 0
-313 -3 -336 -55 -17 -38 -17 -4572 0 -4610 27 -59 -152 -55 2548 -55 2700 0
2521 -4 2548 55 9 20 12 560 12 2306 0 2481 4 2320 -55 2347 -18 8 -107 12
-294 12 l-268 0 -5 83 c-9 133 -61 219 -170 278 -58 31 -70 34 -148 33 -100 0
-160 -24 -225 -89 -59 -59 -87 -124 -93 -222 l-5 -83 -217 0 -217 0 -5 84 c-5
70 -11 94 -38 145 -37 69 -69 100 -144 139 -44 22 -63 26 -136 26 -100 0 -160
-24 -225 -89 -59 -59 -87 -124 -93 -222 l-5 -83 -217 0 -217 0 -5 83 c-9 133
-61 219 -170 278 -58 31 -70 34 -148 33 -100 0 -160 -24 -225 -89 -59 -59 -87
-124 -93 -222 l-5 -83 -217 0 -217 0 -5 84 c-5 70 -11 94 -38 145 -37 69 -69
100 -142 137 -54 27 -159 40 -213 25z m159 -230 l31 -31 0 -270 0 -270 -33
-32 c-28 -28 -39 -33 -82 -33 -43 0 -54 5 -82 33 l-33 32 0 269 0 269 25 27
c33 36 57 46 104 41 27 -3 49 -14 70 -35z m1080 0 l31 -31 0 -270 0 -270 -33
-32 c-28 -28 -39 -33 -82 -33 -43 0 -54 5 -82 33 l-33 32 0 269 0 269 25 27
c33 36 57 46 104 41 27 -3 49 -14 70 -35z m1080 0 l31 -31 0 -270 0 -270 -33
-32 c-28 -28 -39 -33 -82 -33 -43 0 -54 5 -82 33 l-33 32 0 269 0 269 25 27
c33 36 57 46 104 41 27 -3 49 -14 70 -35z m1080 0 l31 -31 0 -270 0 -270 -33
-32 c-28 -28 -39 -33 -82 -33 -43 0 -54 5 -82 33 l-33 32 0 269 0 269 25 27
c33 36 57 46 104 41 27 -3 49 -14 70 -35z m-3644 -471 c0 -141 21 -202 94
-276 127 -126 325 -126 452 0 73 74 94 135 94 276 l0 110 220 0 220 0 0 -110
c0 -141 21 -202 94 -276 127 -126 325 -126 452 0 73 74 94 135 94 276 l0 110
220 0 220 0 0 -110 c0 -141 21 -202 94 -276 127 -126 325 -126 452 0 73 74 94
135 94 276 l0 110 220 0 220 0 0 -110 c0 -87 4 -121 22 -167 29 -77 104 -152
181 -181 122 -46 252 -19 343 72 73 74 94 135 94 276 l0 110 210 0 210 0 0
-460 0 -460 -976 0 -976 0 -29 -29 c-32 -32 -38 -71 -17 -116 26 -57 -16 -55
1033 -55 l965 0 0 -1600 0 -1600 -2360 0 -2360 0 0 1600 0 1600 965 0 c1049 0
1007 -2 1033 55 21 45 15 84 -17 116 l-29 29 -976 0 -976 0 0 460 0 460 210 0
210 0 0 -110z"/>
<path d="M2489 3571 c-81 -81 17 -210 120 -157 90 47 53 186 -49 186 -33 0
-48 -6 -71 -29z"/>
<path d="M611 3026 c-52 -29 -50 25 -51 -1224 0 -1264 -3 -1204 55 -1230 38
-17 3852 -17 3890 0 58 26 55 -34 55 1228 0 1262 3 1202 -55 1228 -40 19
-3861 17 -3894 -2z m899 -466 l0 -280 -375 0 -375 0 0 280 0 280 375 0 375 0
0 -280z m950 0 l0 -280 -375 0 -375 0 0 280 0 280 375 0 375 0 0 -280z m950 0
l0 -280 -375 0 -375 0 0 280 0 280 375 0 375 0 0 -280z m950 0 l0 -280 -375 0
-375 0 0 280 0 280 375 0 375 0 0 -280z m-2850 -760 l0 -280 -375 0 -375 0 0
280 0 280 375 0 375 0 0 -280z m950 0 l0 -280 -375 0 -375 0 0 280 0 280 375
0 375 0 0 -280z m950 0 l0 -280 -375 0 -375 0 0 280 0 280 375 0 375 0 0 -280z
m950 0 l0 -280 -375 0 -375 0 0 280 0 280 375 0 375 0 0 -280z m-2850 -760 l0
-280 -375 0 -375 0 0 280 0 280 375 0 375 0 0 -280z m950 0 l0 -280 -375 0
-375 0 0 280 0 280 375 0 375 0 0 -280z m950 0 l0 -280 -375 0 -375 0 0 280 0
280 375 0 375 0 0 -280z m950 0 l0 -280 -375 0 -375 0 0 280 0 280 375 0 375
0 0 -280z"/>
</g>
</svg>
