<?xml version="1.0" standalone="no"?>
<!DOCTYPE svg PUBLIC "-//W3C//DTD SVG 20010904//EN"
 "http://www.w3.org/TR/2001/REC-SVG-20010904/DTD/svg10.dtd">
<svg version="1.0" xmlns="http://www.w3.org/2000/svg"
 width="512.000000pt" height="512.000000pt" viewBox="0 0 512.000000 512.000000"
 preserveAspectRatio="xMidYMid meet">

<g transform="translate(0.000000,512.000000) scale(0.100000,-0.100000)"
fill="#000000" stroke="none">
<path d="M2395 5109 c-403 -58 -766 -345 -915 -723 -69 -175 -73 -206 -77
-586 -4 -324 -3 -349 16 -409 l20 -65 -72 -75 c-167 -175 -261 -390 -274 -622
-5 -89 -4 -98 16 -118 18 -18 33 -21 95 -21 187 0 395 72 557 194 41 31 76 56
79 56 3 0 14 -14 24 -30 32 -55 122 -155 180 -199 l56 -43 0 -115 c0 -120 -12
-166 -47 -177 -10 -3 -160 -26 -333 -51 -173 -25 -344 -55 -380 -66 -197 -62
-356 -223 -428 -434 l-27 -80 -3 -752 -3 -751 27 -21 27 -21 1627 0 1627 0 27
21 26 20 0 273 c0 294 -2 307 -55 320 -29 7 -79 -15 -89 -39 -3 -9 -6 -113 -6
-231 l0 -214 -185 0 -185 0 0 880 c0 596 3 880 10 880 6 0 39 -14 73 -31 82
-42 185 -146 225 -230 57 -117 62 -153 62 -485 0 -280 1 -303 19 -325 26 -32
86 -32 113 1 18 23 19 40 16 374 -4 335 -5 354 -27 416 -51 146 -168 293 -294
368 -99 60 -174 78 -517 127 -178 26 -332 51 -343 56 -29 16 -37 53 -37 173
l0 113 62 49 c53 43 152 155 184 210 10 17 16 14 80 -34 88 -67 246 -145 349
-172 44 -12 128 -24 186 -27 101 -5 107 -5 129 17 21 21 22 28 17 119 -14 232
-114 457 -279 627 l-68 71 17 44 c16 39 18 84 18 384 0 453 -13 527 -94 544
-31 6 -37 13 -66 82 -31 74 -31 76 -13 99 10 12 18 32 18 45 0 60 -169 259
-310 364 -240 179 -562 262 -855 220z m204 -1200 c46 -67 185 -206 257 -255
l56 -39 -37 -6 c-54 -9 -65 -29 -65 -121 0 -65 3 -81 20 -98 30 -30 83 -27
109 6 30 38 30 150 0 187 -19 25 -16 24 48 -12 37 -21 100 -50 138 -65 39 -15
81 -31 94 -37 l23 -10 -5 -207 c-5 -214 -14 -266 -58 -368 -34 -77 -91 -154
-163 -222 -81 -75 -145 -114 -251 -149 -70 -23 -96 -27 -205 -27 -108 0 -136
4 -205 27 -250 82 -428 294 -465 552 -6 44 -10 151 -8 239 l3 158 79 29 c43
15 112 47 153 70 64 35 73 37 59 18 -25 -36 -22 -149 5 -183 26 -33 79 -36
109 -6 17 17 20 33 20 98 0 92 -11 112 -65 121 l-37 6 56 39 c71 49 199 175
251 249 22 31 42 56 45 56 3 0 20 -22 39 -50z m-135 -1581 c117 -15 258 0 346
36 l58 23 4 -101 c4 -109 22 -158 72 -205 14 -14 26 -31 26 -39 0 -32 -78
-160 -130 -212 -205 -209 -522 -144 -659 134 -38 77 -38 86 -5 117 49 46 67
96 72 205 l4 101 58 -24 c31 -12 101 -28 154 -35z m-349 -548 c40 -54 117
-126 153 -143 l22 -10 0 -739 0 -738 -135 0 -134 0 -3 484 c-3 455 -4 485 -22
504 -10 12 -28 22 -40 24 -19 3 -21 10 -24 91 -2 78 -1 87 15 87 26 1 51 22
63 54 6 16 10 133 10 289 l0 262 30 -58 c16 -32 45 -80 65 -107z m985 -735 l0
-895 -155 0 -155 0 0 724 0 723 64 42 c83 53 156 136 204 228 20 40 38 73 40
73 1 0 2 -403 2 -895z m-1707 783 c4 -46 7 -442 7 -880 l0 -798 -185 0 -186 0
3 682 3 683 25 65 c52 132 136 229 257 297 32 18 61 33 64 33 3 0 9 -37 12
-82z"/>
<path d="M2325 3128 c-25 -19 -27 -26 -23 -77 20 -268 378 -331 494 -86 34 71
33 137 -2 164 -30 24 -43 26 -77 10 -28 -13 -47 -47 -47 -84 0 -14 -13 -39
-29 -57 -26 -29 -35 -33 -81 -33 -46 0 -55 4 -81 33 -19 21 -29 43 -29 63 0
35 -47 89 -78 89 -11 0 -32 -10 -47 -22z"/>
</g>
</svg>
