<?xml version="1.0" encoding="UTF-8"?>
<svg version="1.1" xmlns="http://www.w3.org/2000/svg" width="512" height="512">
<path d="M0 0 C1.00292249 -0.0060911 2.00584498 -0.01218221 3.03915906 -0.01845789 C6.38602475 -0.03505216 9.7325085 -0.03031705 13.07940674 -0.0255127 C15.48473505 -0.03285515 17.89005983 -0.04144189 20.29537964 -0.05117798 C26.14308171 -0.07108082 31.99069133 -0.07677547 37.8384175 -0.07499009 C42.59500101 -0.07367991 47.3515537 -0.07749965 52.10813141 -0.08491516 C53.48087859 -0.08701448 54.85362577 -0.08911208 56.22637296 -0.09120798 C57.25143051 -0.09277327 57.25143051 -0.09277327 58.2971963 -0.09437019 C71.20901271 -0.11325434 84.12077225 -0.1122282 97.03259674 -0.10540086 C108.82548156 -0.09982887 120.61814891 -0.12063928 132.41098294 -0.15376133 C144.53860592 -0.18755749 156.66612491 -0.20265916 168.79379582 -0.1980443 C175.59499979 -0.19580531 182.39600288 -0.20095858 189.19716644 -0.22593689 C195.596228 -0.24824043 201.99483799 -0.24629547 208.39390182 -0.22600937 C210.73675514 -0.22260559 213.07963907 -0.22766094 215.42245102 -0.24199295 C242.69342053 -0.39725279 242.69342053 -0.39725279 253.2522583 9.59362793 C261.45990649 19.27067604 263.94532314 29.69188526 263.9082365 42.16192341 C263.90998954 42.91664227 263.91174258 43.67136113 263.91354874 44.44895026 C263.91819533 46.97427088 263.9157467 49.49953358 263.91331482 52.02485657 C263.91518346 53.85518287 263.91748438 55.68550877 263.92018014 57.51583403 C263.92629788 62.54301577 263.92616458 67.57018088 263.92498577 72.5973655 C263.92478176 78.02011822 263.93030055 83.44286561 263.93504333 88.86561584 C263.9433502 99.48869188 263.94609819 110.11176237 263.94665571 120.73484138 C263.94713084 129.36922029 263.9491854 138.00359737 263.95235634 146.63797569 C263.96116285 171.11582556 263.96577569 195.59367105 263.96502586 220.07152251 C263.96496593 222.05098398 263.96496593 222.05098398 263.96490479 224.07043457 C263.96488342 224.73085693 263.96486205 225.39127929 263.96484003 226.07171445 C263.96422729 246.82357348 263.97173411 267.57541616 263.9854126 288.32727051 C264.00076353 311.64737698 264.00936591 334.96747264 264.00844938 358.28758448 C264.00811728 370.63308911 264.01086974 382.9785753 264.02162743 395.3240757 C264.03072736 405.83451701 264.03291182 416.34493154 264.026118 426.85537509 C264.02285031 432.21756191 264.02280517 437.57969732 264.03147125 442.94187927 C264.03932602 447.85256035 264.03791524 452.76314917 264.02918712 457.67382797 C264.02764989 459.44834791 264.02947669 461.22287469 264.0350472 462.99738655 C264.07740592 477.45059781 262.93310509 488.72461869 255.02960205 501.14440918 C247.6286985 508.54531273 238.81103734 512.6956413 228.3643105 512.80496359 C226.97578283 512.7969717 226.97578283 512.7969717 225.5592041 512.78881836 C224.55628161 512.79490946 223.55335912 512.80100057 222.52004504 512.80727625 C219.17317935 512.82387052 215.8266956 512.81913541 212.47979736 512.81433105 C210.07446906 512.82167351 207.66914427 512.83026025 205.26382446 512.83999634 C199.41612239 512.85989918 193.56851277 512.86559383 187.7207866 512.86380845 C182.96420309 512.86249827 178.20765041 512.86631801 173.45107269 512.87373352 C172.07832551 512.87583284 170.70557833 512.87793044 169.33283114 512.88002634 C168.30777359 512.88159163 168.30777359 512.88159163 167.2620078 512.88318855 C154.3501914 512.9020727 141.43843186 512.90104656 128.52660736 512.89421922 C116.73372254 512.88864723 104.94105519 512.90945764 93.14822116 512.94257969 C81.02059818 512.97637585 68.8930792 512.99147752 56.76540828 512.98686266 C49.96420431 512.98462367 43.16320123 512.98977694 36.36203766 513.01475525 C29.9629761 513.03705879 23.56436611 513.03511383 17.16530228 513.01482773 C14.82244896 513.01142395 12.47956503 513.0164793 10.13675308 513.03081131 C-17.13421643 513.18607115 -17.13421643 513.18607115 -27.6930542 503.19519043 C-35.90070238 493.51814231 -38.38611904 483.0969331 -38.3490324 470.62689495 C-38.35078544 469.87217609 -38.35253848 469.11745723 -38.35434464 468.3398681 C-38.35899122 465.81454748 -38.3565426 463.28928478 -38.35411072 460.76396179 C-38.35597936 458.93363549 -38.35828028 457.10330959 -38.36097604 455.27298433 C-38.36709378 450.24580259 -38.36696047 445.21863748 -38.36578166 440.19145286 C-38.36557765 434.76870014 -38.37109645 429.34595275 -38.37583923 423.92320251 C-38.3841461 413.30012648 -38.38689409 402.67705599 -38.38745161 392.05397698 C-38.38792673 383.41959807 -38.3899813 374.78522099 -38.39315224 366.15084267 C-38.40195874 341.6729928 -38.40657159 317.19514731 -38.40582176 292.71729585 C-38.40578181 291.39765487 -38.40574185 290.07801389 -38.40570068 288.71838379 C-38.40567932 288.05796143 -38.40565795 287.39753907 -38.40563593 286.71710391 C-38.40502319 265.96524488 -38.41253001 245.2134022 -38.4262085 224.46154785 C-38.44155943 201.14144138 -38.4501618 177.82134572 -38.44924527 154.50123388 C-38.44891318 142.15572925 -38.45166563 129.81024306 -38.46242332 117.46474266 C-38.47152326 106.95430135 -38.47370772 96.44388682 -38.4669139 85.93344327 C-38.46364621 80.57125645 -38.46360106 75.20912104 -38.47226715 69.84693909 C-38.48012192 64.93625801 -38.47871114 60.02566919 -38.46998302 55.11499039 C-38.46844579 53.34047045 -38.47027259 51.56594367 -38.47584309 49.79143181 C-38.51820182 35.33822055 -37.37390099 24.06419967 -29.47039795 11.64440918 C-21.05899183 3.23300306 -11.66110549 -0.06711732 0 0 Z " fill="#FFF4D3" transform="translate(143.22039794921875,-0.3944091796875)"/>
<path d="M0 0 C1.50542358 0.00737183 1.50542358 0.00737183 3.04125977 0.01489258 C11.28297369 0.14392784 18.77464556 1.12698851 26.75 3.3125 C27.38953613 3.47878906 28.02907227 3.64507812 28.68798828 3.81640625 C55.55617058 10.88870381 78.60651094 28.5771922 92.73193359 52.52050781 C101.91577025 68.68582221 107.17178716 86.9599245 107.0625 105.5625 C107.05512817 107.06792358 107.05512817 107.06792358 107.04760742 108.60375977 C106.91857216 116.84547369 105.93551149 124.33714556 103.75 132.3125 C103.58371094 132.95203613 103.41742188 133.59157227 103.24609375 134.25048828 C96.17379619 161.11867058 78.4853078 184.16901094 54.54199219 198.29443359 C30.20990688 212.11797524 1.31119819 216.44228085 -25.88671875 209.5703125 C-53.88206654 201.80032594 -77.81473761 183.55035488 -92.25 158.3125 C-105.61404432 133.61551061 -109.4248346 104.59788862 -101.89160156 77.45556641 C-93.34726962 48.9159371 -74.07271048 25.6623338 -47.97265625 11.5390625 C-32.91984843 4.20802878 -16.76595401 -0.0984973 0 0 Z " fill="#FE9478" transform="translate(255.25,149.6875)"/>
<path d="M0 0 C99.66 0 199.32 0 302 0 C302 28 302 28 293.25 41.75 C285.84909645 49.15090355 277.03143529 53.30123212 266.58470845 53.41055441 C265.65902334 53.40522648 264.73333823 53.39989856 263.77960205 53.39440918 C262.27521832 53.40354584 262.27521832 53.40354584 260.74044299 53.41286707 C257.3935773 53.42946134 254.04709355 53.42472623 250.70019531 53.41992188 C248.29486701 53.42726433 245.88954222 53.43585107 243.48422241 53.44558716 C237.63652034 53.46549 231.78891072 53.47118465 225.94118455 53.46939927 C221.18460104 53.46808909 216.42804836 53.47190883 211.67147064 53.47932434 C210.29872346 53.48142366 208.92597628 53.48352126 207.55322909 53.48561716 C206.52817154 53.48718245 206.52817154 53.48718245 205.48240575 53.48877937 C192.57058935 53.50766352 179.6588298 53.50663738 166.74700531 53.49981004 C154.95412049 53.49423805 143.16145314 53.51504846 131.36861911 53.54817051 C119.24099613 53.58196667 107.11347714 53.59706834 94.98580623 53.59245348 C88.18460226 53.59021449 81.38359918 53.59536776 74.58243561 53.62034607 C68.18337405 53.64264961 61.78476406 53.64070465 55.38570023 53.62041855 C53.04284691 53.61701477 50.69996298 53.62207012 48.35715103 53.63640213 C21.08618152 53.79166197 21.08618152 53.79166197 10.52734375 43.80078125 C-0.75094658 30.50335966 0 17.35569003 0 0 Z " fill="#6B6E70" transform="translate(105,459)"/>
<path d="M0 0 C1.00292249 -0.0060911 2.00584498 -0.01218221 3.03915906 -0.01845789 C6.38602475 -0.03505216 9.7325085 -0.03031705 13.07940674 -0.0255127 C15.48473505 -0.03285515 17.89005983 -0.04144189 20.29537964 -0.05117798 C26.14308171 -0.07108082 31.99069133 -0.07677547 37.8384175 -0.07499009 C42.59500101 -0.07367991 47.3515537 -0.07749965 52.10813141 -0.08491516 C53.48087859 -0.08701448 54.85362577 -0.08911208 56.22637296 -0.09120798 C57.25143051 -0.09277327 57.25143051 -0.09277327 58.2971963 -0.09437019 C71.20901271 -0.11325434 84.12077225 -0.1122282 97.03259674 -0.10540086 C108.82548156 -0.09982887 120.61814891 -0.12063928 132.41098294 -0.15376133 C144.53860592 -0.18755749 156.66612491 -0.20265916 168.79379582 -0.1980443 C175.59499979 -0.19580531 182.39600288 -0.20095858 189.19716644 -0.22593689 C195.596228 -0.24824043 201.99483799 -0.24629547 208.39390182 -0.22600937 C210.73675514 -0.22260559 213.07963907 -0.22766094 215.42245102 -0.24199295 C242.69342053 -0.39725279 242.69342053 -0.39725279 253.2522583 9.59362793 C264.53054863 22.89104952 263.77960205 36.03871915 263.77960205 53.39440918 C164.11960205 53.39440918 64.45960205 53.39440918 -38.22039795 53.39440918 C-38.22039795 25.39440918 -38.22039795 25.39440918 -29.47039795 11.64440918 C-21.05899183 3.23300306 -11.66110549 -0.06711732 0 0 Z " fill="#6B6E70" transform="translate(143.22039794921875,-0.3944091796875)"/>
<path d="M0 0 C0.33 0 0.66 0 1 0 C1 66.66 1 133.32 1 202 C-67.31 202 -135.62 202 -206 202 C-206 201.67 -206 201.34 -206 201 C-205.351521 200.92483154 -204.70304199 200.84966309 -204.03491211 200.7722168 C-191.58259598 199.31365865 -179.22372785 197.8511921 -167 195 C-166.12601563 194.79890625 -165.25203125 194.5978125 -164.3515625 194.390625 C-126.77708157 184.91029443 -93.9671099 165.52743027 -66 139 C-65.49678223 138.52546387 -64.99356445 138.05092773 -64.47509766 137.56201172 C-56.48195834 129.97508533 -49.54796112 121.8575133 -43 113 C-41.87851562 111.49566406 -41.87851562 111.49566406 -40.734375 109.9609375 C-29.61540719 94.48237439 -20.79378462 77.77881773 -14 60 C-13.72462402 59.29987793 -13.44924805 58.59975586 -13.16552734 57.87841797 C-5.87316776 39.24531835 -2.48766723 19.77998822 0 0 Z " fill="#FFEB99" transform="translate(405,257)"/>
<path d="M0 0 C4.10338418 3.51718644 7.96284248 6.83810314 11.74194336 10.62841797 C12.60230698 11.48885712 13.46267059 12.34929626 14.34910583 13.23580933 C15.25354935 14.14541412 16.15799286 15.05501892 17.08984375 15.9921875 C18.04368954 16.94790248 18.99775941 17.90339388 19.95204163 18.8586731 C22.44153194 21.35194916 24.92800224 23.84821525 27.41381836 26.34515381 C29.95957994 28.90121509 32.50823777 31.45438505 35.05664062 34.0078125 C40.04057069 39.00241019 45.02131048 44.00017799 50 49 C48.46105711 52.65228388 46.26576756 54.98195941 43.47436523 57.76855469 C43.01726166 58.22755661 42.56015808 58.68655853 42.08920288 59.1594696 C40.58383542 60.66852859 39.07141304 62.17028944 37.55859375 63.671875 C36.50973159 64.71954474 35.46123917 65.76758475 34.4131012 66.815979 C32.21964316 69.00787519 30.02287221 71.19637649 27.82348633 73.38232422 C24.99800935 76.19075935 22.17921267 79.00578519 19.36262417 81.82313156 C17.20029455 83.98519 15.03537443 86.14463817 12.86955452 88.30319977 C11.82869318 89.34087008 10.7884442 90.379155 9.74880791 91.41805267 C8.30046944 92.86423516 6.84845006 94.30672847 5.39624023 95.74902344 C4.5695433 96.57190857 3.74284637 97.3947937 2.89109802 98.24261475 C1 100 1 100 0 100 C0 67 0 34 0 0 Z " fill="#CC2901" transform="translate(238,206)"/>
<path d="M0 0 C0.84460281 -0.0159874 1.68920563 -0.03197479 2.55940247 -0.04844666 C3.47396713 -0.05380936 4.3885318 -0.05917206 5.33081055 -0.06469727 C6.27055222 -0.07372574 7.21029388 -0.08275421 8.17851257 -0.09205627 C10.16991988 -0.106582 12.16137517 -0.11545126 14.15283203 -0.11914062 C17.19540353 -0.13101715 20.23593427 -0.18016259 23.27807617 -0.23071289 C25.21231106 -0.24017916 27.14655841 -0.24741322 29.08081055 -0.25219727 C30.44354851 -0.28149574 30.44354851 -0.28149574 31.83381653 -0.31138611 C36.32420263 -0.27943125 38.29416985 -0.15372448 41.97998047 2.62255859 C43.9050293 5.30639648 43.9050293 5.30639648 44.5300293 8.80639648 C43.72053872 13.33954369 42.56774339 14.53832004 38.9050293 17.30639648 C35.64952655 18.02534918 32.47430429 17.98413732 29.15112305 17.93530273 C27.7443203 17.93892067 27.7443203 17.93892067 26.30909729 17.94261169 C24.33134726 17.94163435 22.35356949 17.92826757 20.37597656 17.90332031 C17.3489094 17.86896889 14.32475548 17.88267748 11.29760742 17.90209961 C9.37376688 17.89520211 7.44993385 17.8855306 5.52612305 17.87280273 C4.62188095 17.8777626 3.71763885 17.88272247 2.78599548 17.88783264 C-3.45736682 17.77074842 -3.45736682 17.77074842 -6.63769531 15.45458984 C-8.54964117 12.63615936 -9.02547103 10.71188041 -9.0949707 7.30639648 C-6.91524899 2.73936051 -5.19112558 0.07420057 0 0 Z " fill="#EEEFEF" transform="translate(256.094970703125,17.693603515625)"/>
<path d="M0 0 C0.91330078 -0.00478363 1.82660156 -0.00956726 2.76757812 -0.01449585 C4.69402799 -0.01789067 6.62053579 -0.00871744 8.546875 0.01220703 C11.49089348 0.03897969 14.4310997 0.01244628 17.375 -0.01953125 C19.25000839 -0.01622708 21.12501442 -0.00982068 23 0 C23.87720703 -0.01012115 24.75441406 -0.02024231 25.65820312 -0.03067017 C30.06086842 0.05350413 31.94880392 0.2449385 35.5546875 2.98681641 C37.5 5.6640625 37.5 5.6640625 38.125 9.1640625 C37.31694027 13.68919698 36.14605622 14.89163772 32.5 17.6640625 C29.32984877 18.39050808 26.24169163 18.36552742 23 18.328125 C22.08669922 18.33290863 21.17339844 18.33769226 20.23242188 18.34262085 C18.30597201 18.34601567 16.37946421 18.33684244 14.453125 18.31591797 C11.50910652 18.28914531 8.5689003 18.31567872 5.625 18.34765625 C3.74999161 18.34435208 1.87498558 18.33794568 0 18.328125 C-1.31581055 18.34330673 -1.31581055 18.34330673 -2.65820312 18.35879517 C-7.06086842 18.27462087 -8.94880392 18.0831865 -12.5546875 15.34130859 C-14.5 12.6640625 -14.5 12.6640625 -15.125 9.1640625 C-13.57264612 0.47088076 -7.50895987 -0.08663787 0 0 Z " fill="#EFEFEF" transform="translate(244.5,476.3359375)"/>
<path d="M0 0 C0.69867188 -0.01933594 1.39734375 -0.03867187 2.1171875 -0.05859375 C6.03765205 -0.02160824 7.85347121 0.51017401 10.9609375 2.9453125 C13 5.625 13 5.625 13.625 9.125 C12.82493987 13.6053367 11.55860458 14.83633097 8 17.625 C5.08581227 18.13259417 2.8894271 18.32996569 0 18.25 C-1.04800781 18.27900391 -1.04800781 18.27900391 -2.1171875 18.30859375 C-6.03765205 18.27160824 -7.85347121 17.73982599 -10.9609375 15.3046875 C-13 12.625 -13 12.625 -13.625 9.125 C-12.2545544 1.45050467 -7.10420776 -0.19661092 0 0 Z " fill="#EDEDED" transform="translate(225,17.375)"/>
</svg>
