<?xml version="1.0" encoding="UTF-8"?>
<svg version="1.1" xmlns="http://www.w3.org/2000/svg" width="75" height="75">
<path d="M0 0 C5.94 0 11.88 0 18 0 C18.495 11.385 18.495 11.385 19 23 C22.63 23 26.26 23 30 23 C29.34 21.68 28.68 20.36 28 19 C27.26348414 14.28972412 27.57753367 10.82984458 29.75 6.5625 C33.16738586 2.67047721 34.68927146 2.1268447 39.875 1.625 C44.18785966 1.73764932 46.70279071 3.17382061 50 6 C52.54768493 10.20236689 52.82829638 14.20376952 52 19 C50.80251833 21.19865487 49.42917092 23.17250336 47.99609375 25.22265625 C46.72357192 27.06071929 46.72357192 27.06071929 47.4375 29.6875 C49.15210299 32.22511243 51.08682715 34.60853394 53 37 C53 48.88 53 60.76 53 73 C28.91 73 4.82 73 -20 73 C-20 37 -20 37 -15.375 27.75 C-8.77305024 21.848016 -1.79124075 21.84138266 6.78369141 22.28027344 C9.19326219 22.47430488 11.59767669 22.73070041 14 23 C14.495 16.565 14.495 16.565 15 10 C10.05 10 5.1 10 0 10 C0.33 8.68 0.66 7.36 1 6 C1.08084521 3.63619656 1.08084521 3.63619656 0 0 Z " fill="#050404" transform="translate(21,1)"/>
<path d="M0 0 C1.76900829 1.61291932 3.38497233 3.23796071 5 5 C5.52142578 5.55623047 6.04285156 6.11246094 6.58007812 6.68554688 C12.42190689 13.98964257 11.68526789 21.72376777 11.375 30.5625 C11.34484865 32.06309726 11.31748198 33.56375318 11.29296875 35.06445312 C11.22741298 38.71087098 11.12418359 42.35505254 11 46 C10.34 46 9.68 46 9 46 C9 39.4 9 32.8 9 26 C8.34 26 7.68 26 7 26 C7 32.6 7 39.2 7 46 C1.39 46 -4.22 46 -10 46 C-10.16203531 41.62247474 -10.30085947 37.25559405 -10.38452148 32.87744141 C-10.41942788 31.39335647 -10.46697457 29.90950692 -10.52807617 28.42626953 C-10.93165452 18.36733365 -10.03205757 11.75054421 -3 4 C-1.98828864 2.67553109 -0.98438452 1.3449033 0 0 Z " fill="#91E8F9" transform="translate(37,25)"/>
<path d="M0 0 C7.26 0 14.52 0 22 0 C22 10.23 22 20.46 22 31 C16.8334375 31.0309375 16.8334375 31.0309375 11.5625 31.0625 C10.47525635 31.071604 9.3880127 31.08070801 8.26782227 31.09008789 C7.41760498 31.09258545 6.5673877 31.09508301 5.69140625 31.09765625 C4.37958374 31.10551147 4.37958374 31.10551147 3.04125977 31.11352539 C1 31 1 31 0 30 C-0.08783542 27.78144736 -0.10694609 25.56011504 -0.09765625 23.33984375 C-0.0962413 22.67537735 -0.09482635 22.01091095 -0.09336853 21.3263092 C-0.08775518 19.19666101 -0.07520054 17.06711661 -0.0625 14.9375 C-0.05748671 13.49674631 -0.05292351 12.05599097 -0.04882812 10.61523438 C-0.03863076 7.07675042 -0.0190583 3.53849187 0 0 Z " fill="#3986A3" transform="translate(3,41)"/>
<path d="M0 0 C7.26 0 14.52 0 22 0 C22.0229132 4.25421714 22.04283889 8.50822157 22.05493164 12.76245117 C22.05997101 14.21070073 22.06680253 15.65894517 22.07543945 17.10717773 C22.08752247 19.18474588 22.09323211 21.26224697 22.09765625 23.33984375 C22.10551147 25.21724243 22.10551147 25.21724243 22.11352539 27.13256836 C22 30 22 30 21 31 C19.43827255 31.08685603 17.87270656 31.10702219 16.30859375 31.09765625 C15.45837646 31.09515869 14.60815918 31.09266113 13.73217773 31.09008789 C12.64493408 31.08098389 11.55769043 31.07187988 10.4375 31.0625 C6.993125 31.041875 3.54875 31.02125 0 31 C0 20.77 0 10.54 0 0 Z " fill="#4CAED3" transform="translate(50,41)"/>
<path d="M0 0 C3.375 2 3.375 2 6 5 C7.38055778 10.52223113 6.02384037 13.33839585 3.12548828 18.20117188 C1.47332908 20.84175951 -0.24330356 23.4276945 -2 26 C-5.6100444 24.79665187 -6.10828588 23.75648072 -8.125 20.625 C-8.64320312 19.83351563 -9.16140625 19.04203125 -9.6953125 18.2265625 C-12.1577112 14.02426532 -12.72410979 9.78877942 -12 5 C-8.56308514 0.53201069 -5.58089878 -0.64394986 0 0 Z " fill="#C0382E" transform="translate(64,6)"/>
<path d="M0 0 C1.39456867 0.00574201 2.78910972 0.01875397 4.18359375 0.03515625 C6.63796875 0.05578125 9.09234375 0.07640625 11.62109375 0.09765625 C11.29109375 7.02765625 10.96109375 13.95765625 10.62109375 21.09765625 C5.67109375 21.09765625 0.72109375 21.09765625 -4.37890625 21.09765625 C-4.40574061 17.78510299 -4.42566405 14.47276442 -4.44140625 11.16015625 C-4.44978516 10.21462891 -4.45816406 9.26910156 -4.46679688 8.29492188 C-4.47001953 7.39580078 -4.47324219 6.49667969 -4.4765625 5.5703125 C-4.48179932 4.73765869 -4.48703613 3.90500488 -4.49243164 3.04711914 C-4.29337024 -0.37117181 -3.52531542 0.10188773 0 0 Z " fill="#42494B" transform="translate(33.37890625,49.90234375)"/>
<path d="M0 0 C0.86431641 0.05027344 1.72863281 0.10054687 2.61914062 0.15234375 C3.50279297 0.17941406 4.38644531 0.20648437 5.296875 0.234375 C7.46785176 0.30478506 9.63756592 0.41239769 11.80664062 0.52734375 C10.66237796 2.34083575 9.51618671 4.153111 8.36914062 5.96484375 C7.73105469 6.97417969 7.09296875 7.98351563 6.43554688 9.0234375 C4.80664062 11.52734375 4.80664062 11.52734375 3.80664062 12.52734375 C2.31792203 12.61403807 0.82519563 12.63437869 -0.66601562 12.625 C-1.56513672 12.62177734 -2.46425781 12.61855469 -3.390625 12.61523438 C-4.33615234 12.60685547 -5.28167969 12.59847656 -6.25585938 12.58984375 C-7.20525391 12.58533203 -8.15464844 12.58082031 -9.1328125 12.57617188 C-11.48639003 12.56434485 -13.83984415 12.547864 -16.19335938 12.52734375 C-15.27184619 11.0938788 -14.34267269 9.66482079 -13.37768555 8.26025391 C-12.23546552 6.58895361 -11.14486935 4.88272868 -10.05664062 3.17578125 C-6.49849161 -0.11538523 -4.68590642 -0.10772199 0 0 Z " fill="#666666" transform="translate(21.193359375,26.47265625)"/>
<path d="M0 0 C4.42342213 -0.46630511 8.5976423 -0.72660273 13 0 C15.09686249 1.95936331 16.0279051 3.63375832 17.16796875 6.25 C17.44253906 6.8275 17.71710937 7.405 18 8 C20.12364481 8.22609337 20.12364481 8.22609337 21.625 6.5 C22.07875 6.005 22.5325 5.51 23 5 C24.70884005 6.62339805 26.37446717 8.29319053 28 10 C28 10.66 28 11.32 28 12 C10.32532675 13.80534162 10.32532675 13.80534162 4.890625 9.5859375 C0 2.67837591 0 2.67837591 0 0 Z " fill="#646464" transform="translate(42,27)"/>
<path d="M0 0 C5.61 0 11.22 0 17 0 C17 9.24 17 18.48 17 28 C11.72 28 6.44 28 1 28 C0.67 27.34 0.34 26.68 0 26 C4.95 26 9.9 26 15 26 C15 22.7 15 19.4 15 16 C10.05 16 5.1 16 0 16 C0 15.67 0 15.34 0 15 C4.62 14.67 9.24 14.34 14 14 C14.33 10.7 14.66 7.4 15 4 C10.05 4 5.1 4 0 4 C0 2.68 0 1.36 0 0 Z " fill="#4CB0D6" transform="translate(7,41)"/>
<path d="M0 0 C5.28 0 10.56 0 16 0 C16 3.3 16 6.6 16 10 C10.72 10 5.44 10 0 10 C0 6.7 0 3.4 0 0 Z " fill="#19292F" transform="translate(53,57)"/>
<path d="M0 0 C5.28 0 10.56 0 16 0 C16 3.3 16 6.6 16 10 C10.72 10 5.44 10 0 10 C0 6.7 0 3.4 0 0 Z " fill="#192A30" transform="translate(6,57)"/>
<path d="M0 0 C3.4375 0.9375 3.4375 0.9375 5.4375 2 C6.87807326 4.79111069 6.43050122 7.03989918 6.0546875 10.09765625 C5.4375 11.9375 5.4375 11.9375 2.4375 13.9375 C-1.17800392 14.39905369 -2.89886094 14.39156883 -5.9375 12.3125 C-8.04956506 9.22563568 -8.17445145 7.6092087 -7.5625 3.9375 C-5.26874134 0.3592365 -4.28872478 -0.07524079 0 0 Z " fill="#180C0C" transform="translate(61.5625,8.0625)"/>
<path d="M0 0 C2.46943529 3.70415293 2.46913089 5.62144505 2 10 C-0.23320602 12.66266871 -1.6200117 12.95347082 -5.0625 13.375 C-8 13 -8 13 -9.875 12 C-11.68928813 8.77459888 -11.65859978 5.59984654 -11 2 C-7.94917282 -2.02709188 -4.54879972 -1.17931845 0 0 Z " fill="#0B1319" transform="translate(42,35)"/>
<path d="M0 0 C5.28 0 10.56 0 16 0 C16 2.97 16 5.94 16 9 C10.72 9 5.44 9 0 9 C0 6.03 0 3.06 0 0 Z " fill="#000000" transform="translate(53,46)"/>
<path d="M0 0 C5.28 0 10.56 0 16 0 C16 2.97 16 5.94 16 9 C10.72 9 5.44 9 0 9 C0 6.03 0 3.06 0 0 Z " fill="#000000" transform="translate(6,46)"/>
<path d="M0 0 C0.33 0 0.66 0 1 0 C1 9.24 1 18.48 1 28 C7.6 28 14.2 28 21 28 C21 18.76 21 9.52 21 0 C21.33 0 21.66 0 22 0 C22.02465622 4.25414623 22.04283899 8.50825498 22.05493164 12.76245117 C22.05997101 14.21070073 22.06680253 15.65894517 22.07543945 17.10717773 C22.08752247 19.18474588 22.09323211 21.26224697 22.09765625 23.33984375 C22.10551147 25.21724243 22.10551147 25.21724243 22.11352539 27.13256836 C22 30 22 30 21 31 C19.43827255 31.08685603 17.87270656 31.10702219 16.30859375 31.09765625 C15.45837646 31.09515869 14.60815918 31.09266113 13.73217773 31.09008789 C12.64493408 31.08098389 11.55769043 31.07187988 10.4375 31.0625 C6.993125 31.041875 3.54875 31.02125 0 31 C0 20.77 0 10.54 0 0 Z " fill="#347892" transform="translate(50,41)"/>
<path d="M0 0 C4.59216906 4.06734974 7.2167907 8.56385928 10 14 C9.34 14 8.68 14 8 14 C7.67 15.32 7.34 16.64 7 18 C6.34 15.69 5.68 13.38 5 11 C-0.28199593 9.80011955 -0.28199593 9.80011955 -5 12 C-5.73343428 15.06556598 -5.73343428 15.06556598 -6 18 C-6.66 17.01 -7.32 16.02 -8 15 C-8.99 15.495 -8.99 15.495 -10 16 C-8.39270035 12.59963241 -6.46281671 9.47943574 -4.4375 6.3125 C-3.81746094 5.33925781 -3.19742188 4.36601562 -2.55859375 3.36328125 C-1 1 -1 1 0 0 Z " fill="#87D5E4" transform="translate(37,25)"/>
<path d="M0 0 C0.66 0.33 1.32 0.66 2 1 C2 8.26 2 15.52 2 23 C-4.6 23 -11.2 23 -18 23 C-18 22.34 -18 21.68 -18 21 C-12.06 21 -6.12 21 0 21 C0 17.7 0 14.4 0 11 C-4.95 11 -9.9 11 -15 11 C-15 10.67 -15 10.34 -15 10 C-10.38 9.67 -5.76 9.34 -1 9 C-0.67 6.03 -0.34 3.06 0 0 Z " fill="#4CAED3" transform="translate(69,46)"/>
<path d="M0 0 C1.32 0 2.64 0 4 0 C4 1.32 4 2.64 4 4 C8.95 4 13.9 4 19 4 C19 4.33 19 4.66 19 5 C13.72 5 8.44 5 3 5 C3 7.97 3 10.94 3 14 C2.34 14 1.68 14 1 14 C1 19.28 1 24.56 1 30 C0.67 30 0.34 30 0 30 C0 20.1 0 10.2 0 0 Z " fill="#377F9B" transform="translate(3,41)"/>
<path d="M0 0 C2.97 0 5.94 0 9 0 C9 2.64 9 5.28 9 8 C5.7 8 2.4 8 -1 8 C-0.67 5.36 -0.34 2.72 0 0 Z " fill="#101010" transform="translate(60,58)"/>
<path d="M0 0 C2.97 0 5.94 0 9 0 C9 2.64 9 5.28 9 8 C5.7 8 2.4 8 -1 8 C-0.67 5.36 -0.34 2.72 0 0 Z " fill="#101010" transform="translate(13,58)"/>
<path d="M0 0 C1.32 0 2.64 0 4 0 C4 5.94 4 11.88 4 18 C2.68 18 1.36 18 0 18 C0 12.06 0 6.12 0 0 Z " fill="#FDFDFD" transform="translate(39,53)"/>
<path d="M0 0 C1.32 0 2.64 0 4 0 C4 5.94 4 11.88 4 18 C2.68 18 1.36 18 0 18 C0 12.06 0 6.12 0 0 Z " fill="#FDFDFD" transform="translate(32,53)"/>
<path d="M0 0 C1.010625 0.0825 2.02125 0.165 3.0625 0.25 C5.0625 3.25 5.0625 3.25 4.8125 5.3125 C4.0625 7.25 4.0625 7.25 2.0625 9.25 C-1.23464793 8.92028521 -2.5601839 8.6273161 -4.9375 6.25 C-4.21909413 0.35907184 -4.21909413 0.35907184 0 0 Z " fill="#E0E0E0" transform="translate(60.9375,10.75)"/>
<path d="M0 0 C0.66 0 1.32 0 2 0 C2 2.97 2 5.94 2 9 C6.95 9 11.9 9 17 9 C17 9.33 17 9.66 17 10 C12.38 10.33 7.76 10.66 3 11 C2.67 14.3 2.34 17.6 2 21 C1.34 21 0.68 21 0 21 C0 14.07 0 7.14 0 0 Z " fill="#46A2C5" transform="translate(51,46)"/>
<path d="M0 0 C0.99 0.33 1.98 0.66 3 1 C0.69 3.97 -1.62 6.94 -4 10 C0.95 10.33 5.9 10.66 11 11 C11 11.33 11 11.66 11 12 C4.4 12 -2.2 12 -9 12 C-6.08940292 7.63410439 -3.36486471 3.9256755 0 0 Z " fill="#414141" transform="translate(14,27)"/>
<path d="M0 0 C2.04119788 1.61594832 4.04072937 3.2856382 6 5 C6 5.66 6 6.32 6 7 C-0.6 7 -7.2 7 -14 7 C-14 6.67 -14 6.34 -14 6 C-13.32453125 5.98582031 -12.6490625 5.97164062 -11.953125 5.95703125 C-6.05393523 5.75451345 -6.05393523 5.75451345 -1.375 2.4375 C-0.92125 1.633125 -0.4675 0.82875 0 0 Z " fill="#535353" transform="translate(64,32)"/>
<path d="M0 0 C0.33 0 0.66 0 1 0 C1 1.65 1 3.3 1 5 C2.32 5 3.64 5 5 5 C4.67 3.35 4.34 1.7 4 0 C4.66 0 5.32 0 6 0 C6.33 2.31 6.66 4.62 7 7 C4 9 4 9 1.3125 8.625 C0.549375 8.41875 -0.21375 8.2125 -1 8 C-1.625 5.125 -1.625 5.125 -2 2 C-1.34 1.34 -0.68 0.68 0 0 Z " fill="#245AAF" transform="translate(35,37)"/>
<path d="M0 0 C0.33 1.32 0.66 2.64 1 4 C-5.6 4 -12.2 4 -19 4 C-19 3.34 -19 2.68 -19 2 C-17.71222656 1.93941406 -16.42445312 1.87882812 -15.09765625 1.81640625 C-13.41925841 1.73201753 -11.74087364 1.6473687 -10.0625 1.5625 C-8.78729492 1.50352539 -8.78729492 1.50352539 -7.48632812 1.44335938 C-6.67744141 1.40146484 -5.86855469 1.35957031 -5.03515625 1.31640625 C-3.91185913 1.26141968 -3.91185913 1.26141968 -2.76586914 1.20532227 C-0.97538674 1.18228937 -0.97538674 1.18228937 0 0 Z " fill="#4FB5DC" transform="translate(70,65)"/>
<path d="M0 0 C3.375 2.0625 3.375 2.0625 6 5 C6.375 8.8125 6.375 8.8125 6 12 C5.34 12 4.68 12 4 12 C3.5978125 10.329375 3.5978125 10.329375 3.1875 8.625 C2.34190981 4.78159049 2.34190981 4.78159049 -1 3 C-3.33199388 2.92094936 -5.66832622 2.91201231 -8 3 C-8 2.34 -8 1.68 -8 1 C-5.09704195 -0.45147903 -3.22738221 -0.37239025 0 0 Z " fill="#C63B30" transform="translate(64,6)"/>
<path d="M0 0 C0.99 0.33 1.98 0.66 3 1 C2.01 2.485 2.01 2.485 1 4 C0.62521757 7.52295483 0.58872755 9.34881863 2.5 12.375 C2.995 12.91125 3.49 13.4475 4 14 C3.01 14.99 2.02 15.98 1 17 C-2.00943022 11.98428297 -2.46706347 8.69817438 -2 3 C-1.34 2.01 -0.68 1.02 0 0 Z " fill="#A92D26" transform="translate(54,8)"/>
<path d="M0 0 C2.375 -0.1875 2.375 -0.1875 5 0 C7.46943529 3.70415293 7.46913089 5.62144505 7 10 C5.25 11.9375 5.25 11.9375 3 13 C1.68 13 0.36 13 -1 13 C-1 12.34 -1 11.68 -1 11 C0.65 10.34 2.3 9.68 4 9 C4 6.69 4 4.38 4 2 C2.68 1.34 1.36 0.68 0 0 Z " fill="#04080C" transform="translate(37,35)"/>
<path d="M0 0 C5.61 0 11.22 0 17 0 C17 0.33 17 0.66 17 1 C12.38 1.33 7.76 1.66 3 2 C2.67 4.97 2.34 7.94 2 11 C1.34 11 0.68 11 0 11 C0 7.37 0 3.74 0 0 Z " fill="#45A0C2" transform="translate(4,55)"/>
<path d="M0 0 C2.97 0 5.94 0 9 0 C9 1.32 9 2.64 9 4 C6.03 4 3.06 4 0 4 C0 2.68 0 1.36 0 0 Z " fill="#F3B63F" transform="translate(27,4)"/>
<path d="M0 0 C1.65 0 3.3 0 5 0 C5 1.65 5 3.3 5 5 C3.35 5 1.7 5 0 5 C0 3.35 0 1.7 0 0 Z " fill="#E0E0E0" transform="translate(62,48)"/>
<path d="M0 0 C1.65 0 3.3 0 5 0 C5 1.65 5 3.3 5 5 C3.35 5 1.7 5 0 5 C0 3.35 0 1.7 0 0 Z " fill="#E0E0E0" transform="translate(55,48)"/>
<path d="M0 0 C1.65 0 3.3 0 5 0 C5 1.65 5 3.3 5 5 C3.35 5 1.7 5 0 5 C0 3.35 0 1.7 0 0 Z " fill="#DFDFDF" transform="translate(15,48)"/>
<path d="M0 0 C1.65 0 3.3 0 5 0 C5 1.65 5 3.3 5 5 C3.35 5 1.7 5 0 5 C0 3.35 0 1.7 0 0 Z " fill="#DFDFDF" transform="translate(8,48)"/>
<path d="M0 0 C0.66 0.66 1.32 1.32 2 2 C0.35 4.64 -1.3 7.28 -3 10 C-3.66 9.67 -4.32 9.34 -5 9 C-3.7508258 5.54074837 -2.32472205 2.85306797 0 0 Z " fill="#0D1213" transform="translate(32,28)"/>
<path d="M0 0 C1.65 0 3.3 0 5 0 C5 1.32 5 2.64 5 4 C3.35 4 1.7 4 0 4 C0 2.68 0 1.36 0 0 Z " fill="#EBEBEB" transform="translate(62,60)"/>
<path d="M0 0 C1.65 0 3.3 0 5 0 C5 1.32 5 2.64 5 4 C3.35 4 1.7 4 0 4 C0 2.68 0 1.36 0 0 Z " fill="#EBEBEB" transform="translate(55,60)"/>
<path d="M0 0 C1.65 0 3.3 0 5 0 C5 1.32 5 2.64 5 4 C3.35 4 1.7 4 0 4 C0 2.68 0 1.36 0 0 Z " fill="#EBEBEB" transform="translate(15,60)"/>
<path d="M0 0 C1.65 0 3.3 0 5 0 C5 1.32 5 2.64 5 4 C3.35 4 1.7 4 0 4 C0 2.68 0 1.36 0 0 Z " fill="#EBEBEB" transform="translate(8,60)"/>
<path d="M0 0 C0.33 0.99 0.66 1.98 1 3 C-2.06117568 5.62386487 -2.73173127 6 -7 6 C-7 5.34 -7 4.68 -7 4 C-6.030625 3.525625 -5.06125 3.05125 -4.0625 2.5625 C-1.19522563 1.29806053 -1.19522563 1.29806053 0 0 Z " fill="#090F11" transform="translate(43,42)"/>
<path d="M0 0 C0.99 0 1.98 0 3 0 C3.33 1.98 3.66 3.96 4 6 C2.68 6 1.36 6 0 6 C0 4.02 0 2.04 0 0 Z " fill="#0C1E3A" transform="translate(36,36)"/>
<path d="M0 0 C2 3 2 3 2 5 C2.66 5 3.32 5 4 5 C4 5.99 4 6.98 4 8 C2.0625 7.25 2.0625 7.25 0 6 C-0.8125 4 -0.8125 4 -1 2 C-0.67 1.34 -0.34 0.68 0 0 Z " fill="#0F1A20" transform="translate(32,40)"/>
<path d="M0 0 C3.875 4.75 3.875 4.75 5 7 C3.125 6.8125 3.125 6.8125 1 6 C-0.25 3.4375 -0.25 3.4375 -1 1 C-0.67 0.67 -0.34 0.34 0 0 Z " fill="#0B0E0E" transform="translate(43,29)"/>
</svg>
