<?xml version="1.0" encoding="UTF-8"?>
<svg version="1.1" xmlns="http://www.w3.org/2000/svg" width="512" height="512">
<path d="M0 0 C4.23054894 3.27979209 8.17889664 6.87256551 11.58984375 11.0078125 C11.58984375 11.6678125 11.58984375 12.3278125 11.58984375 13.0078125 C9.2215534 14.04732926 6.84730481 15.06423578 4.46484375 16.0703125 C3.46710938 16.51213867 3.46710938 16.51213867 2.44921875 16.96289062 C-1.87766919 18.7657606 -4.75794553 19.43771276 -9.41015625 18.0078125 C-11.06633748 16.77379511 -12.72150847 15.53827928 -14.36328125 14.28515625 C-21.20417725 10.01612382 -30.04872367 8.89766033 -37.84375 10.51171875 C-43.04275825 11.8965383 -47.2918808 13.87204862 -51.71875 16.921875 C-53.41015625 18.0078125 -53.41015625 18.0078125 -56.41015625 19.0078125 C-57.51852048 20.89097409 -57.51852048 20.89097409 -58.41015625 23.0078125 C-59.07015625 23.9978125 -59.73015625 24.9878125 -60.41015625 26.0078125 C-21.47015625 26.0078125 17.46984375 26.0078125 57.58984375 26.0078125 C57.58984375 31.9478125 57.58984375 37.8878125 57.58984375 44.0078125 C95.20984375 44.0078125 132.82984375 44.0078125 171.58984375 44.0078125 C171.58984375 87.8978125 171.58984375 131.7878125 171.58984375 177.0078125 C165.97984375 177.0078125 160.36984375 177.0078125 154.58984375 177.0078125 C154.58984375 180.9678125 154.58984375 184.9278125 154.58984375 189.0078125 C160.19984375 189.0078125 165.80984375 189.0078125 171.58984375 189.0078125 C171.58984375 195.2778125 171.58984375 201.5478125 171.58984375 208.0078125 C165.97984375 208.0078125 160.36984375 208.0078125 154.58984375 208.0078125 C154.58984375 211.9678125 154.58984375 215.9278125 154.58984375 220.0078125 C160.19984375 220.0078125 165.80984375 220.0078125 171.58984375 220.0078125 C171.58984375 313.3978125 171.58984375 406.7878125 171.58984375 503.0078125 C37.93984375 503.0078125 -95.71015625 503.0078125 -233.41015625 503.0078125 C-233.41015625 471.6578125 -233.41015625 440.3078125 -233.41015625 408.0078125 C-227.47015625 408.0078125 -221.53015625 408.0078125 -215.41015625 408.0078125 C-215.41015625 404.0478125 -215.41015625 400.0878125 -215.41015625 396.0078125 C-221.35015625 396.0078125 -227.29015625 396.0078125 -233.41015625 396.0078125 C-233.41015625 389.7378125 -233.41015625 383.4678125 -233.41015625 377.0078125 C-227.47015625 377.0078125 -221.53015625 377.0078125 -215.41015625 377.0078125 C-215.41015625 373.0478125 -215.41015625 369.0878125 -215.41015625 365.0078125 C-221.35015625 365.0078125 -227.29015625 365.0078125 -233.41015625 365.0078125 C-234.37407107 298.76009006 -234.54010428 232.52278845 -234.48218286 166.26879275 C-234.47416668 156.92585879 -234.46875331 147.58292667 -234.46508789 138.23999023 C-234.46481989 137.5637813 -234.4645519 136.88757237 -234.46427578 136.19087225 C-234.46195919 130.29774706 -234.45980816 124.40462181 -234.45767307 118.51149654 C-234.44846612 93.6769277 -234.42849036 68.84238018 -234.41015625 44.0078125 C-196.79015625 44.0078125 -159.17015625 44.0078125 -120.41015625 44.0078125 C-120.41015625 38.0678125 -120.41015625 32.1278125 -120.41015625 26.0078125 C-107.54015625 26.0078125 -94.67015625 26.0078125 -81.41015625 26.0078125 C-80.42015625 23.0378125 -79.43015625 20.0678125 -78.41015625 17.0078125 C-72.01734336 6.69542428 -62.64064861 -1.47947824 -51.41015625 -5.9921875 C-50.21712891 -6.47171875 -50.21712891 -6.47171875 -49 -6.9609375 C-32.58851153 -12.43988883 -14.16535488 -9.60997644 0 0 Z " fill="#FA9661" transform="translate(287.41015625,8.9921875)"/>
<path d="M0 0 C104.94 0 209.88 0 318 0 C318 75.57 318 151.14 318 229 C213.06 229 108.12 229 0 229 C0 153.43 0 77.86 0 0 Z " fill="#5C3693" transform="translate(97,230)"/>
<path d="M0 0 C4.23054894 3.27979209 8.17889664 6.87256551 11.58984375 11.0078125 C11.58984375 11.6678125 11.58984375 12.3278125 11.58984375 13.0078125 C9.2215534 14.04732926 6.84730481 15.06423578 4.46484375 16.0703125 C3.46710938 16.51213867 3.46710938 16.51213867 2.44921875 16.96289062 C-1.87766919 18.7657606 -4.75794553 19.43771276 -9.41015625 18.0078125 C-11.06633748 16.77379511 -12.72150847 15.53827928 -14.36328125 14.28515625 C-21.20417725 10.01612382 -30.04872367 8.89766033 -37.84375 10.51171875 C-43.04275825 11.8965383 -47.2918808 13.87204862 -51.71875 16.921875 C-53.41015625 18.0078125 -53.41015625 18.0078125 -56.41015625 19.0078125 C-57.51852048 20.89097409 -57.51852048 20.89097409 -58.41015625 23.0078125 C-59.07015625 23.9978125 -59.73015625 24.9878125 -60.41015625 26.0078125 C-21.47015625 26.0078125 17.46984375 26.0078125 57.58984375 26.0078125 C57.58984375 31.9478125 57.58984375 37.8878125 57.58984375 44.0078125 C95.20984375 44.0078125 132.82984375 44.0078125 171.58984375 44.0078125 C171.58984375 87.8978125 171.58984375 131.7878125 171.58984375 177.0078125 C165.97984375 177.0078125 160.36984375 177.0078125 154.58984375 177.0078125 C154.58984375 180.9678125 154.58984375 184.9278125 154.58984375 189.0078125 C160.19984375 189.0078125 165.80984375 189.0078125 171.58984375 189.0078125 C171.58984375 195.2778125 171.58984375 201.5478125 171.58984375 208.0078125 C165.97984375 208.0078125 160.36984375 208.0078125 154.58984375 208.0078125 C154.58984375 211.9678125 154.58984375 215.9278125 154.58984375 220.0078125 C160.19984375 220.0078125 165.80984375 220.0078125 171.58984375 220.0078125 C171.58984375 313.3978125 171.58984375 406.7878125 171.58984375 503.0078125 C37.93984375 503.0078125 -95.71015625 503.0078125 -233.41015625 503.0078125 C-233.41015625 471.6578125 -233.41015625 440.3078125 -233.41015625 408.0078125 C-227.47015625 408.0078125 -221.53015625 408.0078125 -215.41015625 408.0078125 C-215.41015625 433.4178125 -215.41015625 458.8278125 -215.41015625 485.0078125 C-93.64015625 485.0078125 28.12984375 485.0078125 153.58984375 485.0078125 C153.58984375 345.4178125 153.58984375 205.8278125 153.58984375 62.0078125 C121.57984375 62.0078125 89.56984375 62.0078125 56.58984375 62.0078125 C56.58984375 66.6278125 56.58984375 71.2478125 56.58984375 76.0078125 C54.60984375 76.0078125 52.62984375 76.0078125 50.58984375 76.0078125 C50.58984375 76.9978125 50.58984375 77.9878125 50.58984375 79.0078125 C-3.53015625 79.0078125 -57.65015625 79.0078125 -113.41015625 79.0078125 C-113.41015625 78.0178125 -113.41015625 77.0278125 -113.41015625 76.0078125 C-115.39015625 76.0078125 -117.37015625 76.0078125 -119.41015625 76.0078125 C-119.41015625 71.3878125 -119.41015625 66.7678125 -119.41015625 62.0078125 C-151.42015625 62.0078125 -183.43015625 62.0078125 -216.41015625 62.0078125 C-216.33796875 77.42886719 -216.26578125 92.84992188 -216.19140625 108.73828125 C-216.14563897 118.68684812 -216.09996383 128.63541528 -216.0546875 138.58398438 C-215.98328452 154.26978031 -215.91156326 169.95557424 -215.83740234 185.64135742 C-215.55507432 245.43049848 -215.31890266 305.21793336 -215.41015625 365.0078125 C-221.35015625 365.0078125 -227.29015625 365.0078125 -233.41015625 365.0078125 C-234.37407107 298.76009006 -234.54010428 232.52278845 -234.48218286 166.26879275 C-234.47416668 156.92585879 -234.46875331 147.58292667 -234.46508789 138.23999023 C-234.46481989 137.5637813 -234.4645519 136.88757237 -234.46427578 136.19087225 C-234.46195919 130.29774706 -234.45980816 124.40462181 -234.45767307 118.51149654 C-234.44846612 93.6769277 -234.42849036 68.84238018 -234.41015625 44.0078125 C-196.79015625 44.0078125 -159.17015625 44.0078125 -120.41015625 44.0078125 C-120.41015625 38.0678125 -120.41015625 32.1278125 -120.41015625 26.0078125 C-107.54015625 26.0078125 -94.67015625 26.0078125 -81.41015625 26.0078125 C-80.42015625 23.0378125 -79.43015625 20.0678125 -78.41015625 17.0078125 C-72.01734336 6.69542428 -62.64064861 -1.47947824 -51.41015625 -5.9921875 C-50.21712891 -6.47171875 -50.21712891 -6.47171875 -49 -6.9609375 C-32.58851153 -12.43988883 -14.16535488 -9.60997644 0 0 Z " fill="#5A3391" transform="translate(287.41015625,8.9921875)"/>
<path d="M0 0 C32.01 0 64.02 0 97 0 C97 4.62 97 9.24 97 14 C98.98 14 100.96 14 103 14 C103 14.33 103 14.66 103 15 C73.3 15 43.6 15 13 15 C13.03029297 21.6414917 13.06058594 28.2829834 13.09179688 35.12573242 C13.19149947 57.09244978 13.28775762 79.05918151 13.38218227 101.02592213 C13.39717921 104.5141077 13.41220398 108.00229314 13.42724609 111.49047852 C13.43173202 112.53090306 13.43173202 112.53090306 13.43630856 113.59234629 C13.47382154 122.28079282 13.51235291 130.96923374 13.55238724 139.65766907 C13.96547722 229.44001759 14 319.21531972 14 409 C127.19 409 240.38 409 357 409 C357 278.98 357 148.96 357 15 C327.3 15 297.6 15 267 15 C267 14.67 267 14.34 267 14 C268.98 14 270.96 14 273 14 C273 9.38 273 4.76 273 0 C305.01 0 337.02 0 370 0 C370 139.59 370 279.18 370 423 C248.23 423 126.46 423 1 423 C1 393.63 1 364.26 1 334 C-4.94 334 -10.88 334 -17 334 C-17 327.73 -17 321.46 -17 315 C-11.06 315 -5.12 315 1 315 C0.97003433 312.92481583 0.94006866 310.84963165 0.90919495 308.71156311 C0.01012811 245.45102441 -0.12892184 182.19939172 -0.07202661 118.93327296 C-0.05835697 103.44468259 -0.05328229 87.95608895 -0.04751682 72.46749401 C-0.03831569 48.31165495 -0.01833847 24.15583787 0 0 Z " fill="#ED736C" transform="translate(71,71)"/>
<path d="M0 0 C0.33 0 0.66 0 1 0 C1 41.91 1 83.82 1 127 C6.61 127 12.22 127 18 127 C18 133.27 18 139.54 18 146 C12.39 146 6.78 146 1 146 C1 149.96 1 153.92 1 158 C6.61 158 12.22 158 18 158 C18 251.39 18 344.78 18 441 C-115.65 441 -249.3 441 -387 441 C-387 409.65 -387 378.3 -387 346 C-381.06 346 -375.12 346 -369 346 C-369 371.41 -369 396.82 -369 423 C-247.23 423 -125.46 423 0 423 C0 283.41 0 143.82 0 0 Z " fill="#5B3391" transform="translate(441,71)"/>
<path d="M0 0 C40.59 0 81.18 0 123 0 C123 17.49 123 34.98 123 53 C82.41 53 41.82 53 0 53 C0 35.51 0 18.02 0 0 Z " fill="#EAFDFE" transform="translate(168,318)"/>
<path d="M0 0 C40.59 0 81.18 0 123 0 C123 17.49 123 34.98 123 53 C82.41 53 41.82 53 0 53 C0 35.51 0 18.02 0 0 Z " fill="#EBFEFF" transform="translate(168,247)"/>
<path d="M0 0 C40.59 0 81.18 0 123 0 C123 17.16 123 34.32 123 52 C82.41 52 41.82 52 0 52 C0 34.84 0 17.68 0 0 Z " fill="#EBFEFF" transform="translate(168,389)"/>
<path d="M0 0 C1.31124299 0.71522345 2.60595987 1.46231992 3.875 2.25 C4.90625 2.8275 5.9375 3.405 7 4 C14.26091543 9.68245555 18.97173321 16.54019963 21.875 25.25 C22.49448338 34.28836407 22.79871348 42.31735051 17.875 50.25 C17.00875 51.796875 17.00875 51.796875 16.125 53.375 C10.53660441 60.51572769 3.62912523 65.76198546 -5.125 68.25 C-7.78192576 68.48678302 -10.28450909 68.63131214 -12.9375 68.625 C-13.64310059 68.62338867 -14.34870117 68.62177734 -15.07568359 68.62011719 C-20.93166267 68.482773 -25.19090118 67.3125441 -30.125 64.25 C-31.671875 63.38375 -31.671875 63.38375 -33.25 62.5 C-40.39072769 56.91160441 -45.63698546 50.00412523 -48.125 41.25 C-48.36178302 38.59307424 -48.50631214 36.09049091 -48.5 33.4375 C-48.49758301 32.37909912 -48.49758301 32.37909912 -48.49511719 31.29931641 C-48.357773 25.44333733 -47.1875441 21.18409882 -44.125 16.25 C-43.5475 15.21875 -42.97 14.1875 -42.375 13.125 C-32.54858043 0.56901944 -15.47113373 -6.75537517 0 0 Z " fill="#FEFDFC" transform="translate(269.125,125.75)"/>
<path d="M0 0 C1.40324524 -0.00717545 1.40324524 -0.00717545 2.83483887 -0.01449585 C4.80836676 -0.0178911 6.78195118 -0.00871489 8.75537109 0.01220703 C11.77178656 0.03897851 14.78448117 0.01244714 17.80078125 -0.01953125 C19.72136236 -0.01622708 21.64194116 -0.00982071 23.5625 0 C24.46158081 -0.01012115 25.36066162 -0.02024231 26.2869873 -0.03067017 C30.65229975 0.05081108 32.71279555 0.25759065 36.34936523 2.85791016 C38.49987726 5.98162875 38.91302581 7.47700264 38.91015625 11.2265625 C38.91208984 12.27070313 38.91402344 13.31484375 38.91601562 14.390625 C38.89216797 15.47085938 38.86832031 16.55109375 38.84375 17.6640625 C38.85470703 18.74429688 38.86566406 19.82453125 38.87695312 20.9375 C38.83687429 25.26601386 38.77010054 28.66359304 36.85546875 32.58203125 C33.0469885 35.6623347 28.90305168 37.79711927 24.53125 39.9765625 C23.64308594 40.43095703 22.75492187 40.88535156 21.83984375 41.35351562 C19.65871016 42.46753547 17.47271976 43.57055602 15.28125 44.6640625 C16.21976807 45.14033081 16.21976807 45.14033081 17.17724609 45.6262207 C20.00775698 47.06830314 22.83200091 48.52225761 25.65625 49.9765625 C26.64109375 50.47607422 27.6259375 50.97558594 28.640625 51.49023438 C29.58164062 51.97685547 30.52265625 52.46347656 31.4921875 52.96484375 C32.36149902 53.40997314 33.23081055 53.85510254 34.12646484 54.3137207 C36.28125 55.6640625 36.28125 55.6640625 38.28125 58.6640625 C38.1703955 65.64789622 38.1703955 65.64789622 35.09375 69.1640625 C31.76087461 70.94159604 30.02063969 70.95281846 26.28125 70.6640625 C23.58056641 69.65429688 23.58056641 69.65429688 20.8828125 68.2578125 C19.90957031 67.76152344 18.93632812 67.26523438 17.93359375 66.75390625 C16.93457031 66.22925781 15.93554688 65.70460938 14.90625 65.1640625 C13.88402344 64.63941406 12.86179687 64.11476562 11.80859375 63.57421875 C9.29370537 62.28151911 6.78511923 60.97794262 4.28125 59.6640625 C4.08571533 60.28982178 3.89018066 60.91558105 3.6887207 61.56030273 C3.42663818 62.37700439 3.16455566 63.19370605 2.89453125 64.03515625 C2.63712158 64.84654053 2.37971191 65.6579248 2.11450195 66.49389648 C1.28125 68.6640625 1.28125 68.6640625 -0.53125 70.7265625 C-3.53192461 72.0125659 -5.48098361 72.12660056 -8.71875 71.6640625 C-11.41865662 69.86412476 -13.2606365 68.5802895 -14.71875 65.6640625 C-14.83536056 63.78140197 -14.88843969 61.89467093 -14.91162109 60.00854492 C-14.92768402 58.82358932 -14.94374695 57.63863373 -14.96029663 56.41777039 C-15.00464963 50.99620018 -15.0462509 45.57477574 -15.06884766 40.15307617 C-15.08218377 37.29044617 -15.11002879 34.42852959 -15.15087891 31.56616211 C-15.20967365 27.44632928 -15.2275068 23.32726172 -15.2421875 19.20703125 C-15.27619156 17.28651192 -15.27619156 17.28651192 -15.31088257 15.32719421 C-15.29016549 6.64494654 -15.29016549 6.64494654 -12.79345703 2.35913086 C-8.46677701 -0.02614303 -4.87278623 -0.05485405 0 0 Z " fill="#FEFDFD" transform="translate(314.71875,123.3359375)"/>
<path d="M0 0 C1.44009682 -0.00717545 1.44009682 -0.00717545 2.9092865 -0.01449585 C4.93408858 -0.01789122 6.95894574 -0.00871425 8.98364258 0.01220703 C12.08343491 0.03900709 15.179616 0.01243183 18.27929688 -0.01953125 C20.24870591 -0.01622766 22.21811269 -0.00982248 24.1875 0 C25.57667381 -0.01518173 25.57667381 -0.01518173 26.99391174 -0.03067017 C33.4090145 0.08628806 33.4090145 0.08628806 36.60693359 3.07446289 C38.82339279 7.11536744 38.68101038 9.08839609 38.02734375 13.6640625 C35.27156949 16.60640038 33.63556939 17.58314556 29.61401367 18.11816406 C28.34146729 18.0972168 27.0689209 18.07626953 25.7578125 18.0546875 C25.07680984 18.04902771 24.39580719 18.04336792 23.69416809 18.03753662 C21.5336573 18.01526731 19.37484729 17.96509568 17.21484375 17.9140625 C15.7441647 17.89398497 14.27345946 17.87573639 12.80273438 17.859375 C9.21039125 17.81543576 5.61903369 17.74647706 2.02734375 17.6640625 C2.02734375 20.6340625 2.02734375 23.6040625 2.02734375 26.6640625 C2.83558594 26.61765625 3.64382813 26.57125 4.4765625 26.5234375 C13.28264834 26.22600637 13.28264834 26.22600637 17.21484375 28.5390625 C19.54464672 31.27055564 19.98692873 32.35806305 20.46484375 35.9765625 C20.02734375 39.6640625 20.02734375 39.6640625 17.77734375 42.6015625 C13.19825695 45.98610492 7.4269282 45.05723613 2.02734375 44.6640625 C2.02734375 47.6340625 2.02734375 50.6040625 2.02734375 53.6640625 C2.9402417 53.6326416 3.85313965 53.6012207 4.79370117 53.56884766 C8.19513808 53.46631786 11.59492422 53.39124855 14.99731445 53.33447266 C16.46697971 53.30437712 17.93646646 53.26348844 19.40551758 53.21142578 C21.52339716 53.1382718 23.6388962 53.10454036 25.7578125 53.078125 C27.03035889 53.0467041 28.30290527 53.0152832 29.61401367 52.98291016 C33.11982342 53.68251742 33.73713361 53.95645879 35.9777832 56.47412109 C38.02734375 59.6640625 38.02734375 59.6640625 38.08984375 63.2890625 C36.88556391 67.114422 36.26313531 68.33515271 33.02734375 70.6640625 C29.82359587 71.27426507 26.66001185 71.248316 23.40625 71.23046875 C22.46933823 71.23666733 21.53242645 71.24286591 20.56712341 71.24925232 C18.58764687 71.25634928 16.60811063 71.25317862 14.62866211 71.24047852 C11.60353398 71.22662519 8.58150689 71.26066956 5.55664062 71.29882812 C3.63150966 71.29977947 1.70637483 71.29791968 -0.21875 71.29296875 C-1.12096786 71.30622696 -2.02318573 71.31948517 -2.95274353 71.33314514 C-6.99753907 71.27333669 -9.45929808 70.94841726 -13.04077148 68.96459961 C-16.16130905 63.63330334 -15.68502215 58.29212408 -15.63671875 52.2265625 C-15.64150238 50.91373291 -15.64628601 49.60090332 -15.6512146 48.24829102 C-15.65857111 45.47414623 -15.64792211 42.70080848 -15.62451172 39.92675781 C-15.59602197 36.37876652 -15.61243289 32.83266623 -15.64237404 29.28474426 C-15.6648333 25.89020054 -15.64908783 22.49615989 -15.63671875 19.1015625 C-15.6468399 17.83062744 -15.65696106 16.55969238 -15.66738892 15.25024414 C-15.55313954 6.66219528 -15.55313954 6.66219528 -13.05444336 2.36572266 C-8.66122129 -0.06006819 -4.94883892 -0.05420238 0 0 Z " fill="#FEFEFD" transform="translate(376.97265625,123.3359375)"/>
<path d="M0 0 C46.86 0 93.72 0 142 0 C142 5.94 142 11.88 142 18 C95.14 18 48.28 18 0 18 C0 12.06 0 6.12 0 0 Z " fill="#3CD9F3" transform="translate(185,53)"/>
<path d="M0 0 C0.93549683 -0.00099701 1.87099365 -0.00199402 2.83483887 -0.00302124 C4.80843625 0.00164997 6.78204664 0.02104763 8.75537109 0.05419922 C11.77159449 0.10141136 14.78428191 0.09531546 17.80078125 0.08203125 C19.72137518 0.09318539 21.64195427 0.10740554 23.5625 0.125 C24.46158081 0.12317719 25.36066162 0.12135437 26.2869873 0.11947632 C30.40232566 0.21239096 32.72933885 0.39575256 36.32226562 2.54931641 C39.06535767 5.59803211 39.35256971 7.66133887 39.28125 11.7265625 C37.51483828 14.52845696 36.25075178 16.24181161 33.28125 17.7265625 C31.6137894 17.81082344 29.94299813 17.83381393 28.2734375 17.82421875 C27.28730469 17.82099609 26.30117187 17.81777344 25.28515625 17.81445312 C24.25261719 17.80607422 23.22007812 17.79769531 22.15625 17.7890625 C20.59583984 17.78229492 20.59583984 17.78229492 19.00390625 17.77539062 C16.42963038 17.76358202 13.85546854 17.74711325 11.28125 17.7265625 C12.77869643 20.06156371 14.27933256 22.39443812 15.78125 24.7265625 C16.25667236 25.46825684 16.73209473 26.20995117 17.22192383 26.97412109 C20.26187753 31.6901496 23.37935186 36.34044293 26.57421875 40.953125 C27.30125 42.01273438 28.02828125 43.07234375 28.77734375 44.1640625 C30.22125123 46.26429157 31.67802896 48.3557388 33.1484375 50.4375 C35.95949428 54.54805885 38.0792505 57.70323509 39.05078125 62.625 C38.01942321 66.78184409 36.68366525 68.11994342 33.28125 70.7265625 C30.02647998 71.44797679 26.85024546 71.40429922 23.52734375 71.35546875 C22.120541 71.35908669 22.120541 71.35908669 20.68531799 71.36277771 C18.70756796 71.36180036 16.72979019 71.34843358 14.75219727 71.32348633 C11.72513011 71.2891349 8.70097618 71.30284349 5.67382812 71.32226562 C3.74998758 71.31536813 1.82615456 71.30569662 -0.09765625 71.29296875 C-1.00189835 71.29792862 -1.90614044 71.30288849 -2.83778381 71.30799866 C-9.0733761 71.19106015 -9.0733761 71.19106015 -12.25366211 68.90209961 C-14.39178707 65.72715684 -14.78467889 63.55043817 -14.71875 59.7265625 C-13.11100362 56.86057982 -12.34952544 55.51098816 -9.71875 53.7265625 C-5.92249022 52.98880658 -2.25513804 53.15948747 1.59375 53.3515625 C2.62048828 53.37863281 3.64722656 53.40570313 4.70507812 53.43359375 C7.23262576 53.50412996 9.75585043 53.60262821 12.28125 53.7265625 C10.95354952 51.55628287 9.62003029 49.39000854 8.28125 47.2265625 C7.85207275 46.53183838 7.42289551 45.83711426 6.98071289 45.12133789 C4.11600229 40.53176787 1.14665502 36.03055107 -1.91015625 31.56640625 C-2.63138672 30.50808594 -3.35261719 29.44976562 -4.09570312 28.359375 C-5.53550937 26.25434996 -6.98581012 24.15645894 -8.44726562 22.06640625 C-15.19676304 12.17321814 -15.19676304 12.17321814 -14.71875 6.7265625 C-10.75794384 0.18968811 -7.34819571 -0.1505427 0 0 Z " fill="#FEFDFD" transform="translate(111.71875,123.2734375)"/>
<path d="M0 0 C54.12 0 108.24 0 164 0 C164 4.62 164 9.24 164 14 C109.88 14 55.76 14 0 14 C0 9.38 0 4.76 0 0 Z " fill="#E9726D" transform="translate(174,88)"/>
<path d="M0 0 C3.125 2.125 3.125 2.125 5.125 4.125 C5.91404545 11.00096745 5.91404545 11.00096745 3.18359375 14.890625 C-1.61475413 18.3959315 -6.04516753 17.34542662 -11.75 16.84179688 C-16.43340248 16.60019278 -19.15362306 16.83112239 -22.8515625 19.87890625 C-25.9928747 22.84716019 -27.69342173 25.60903259 -28.2109375 29.9296875 C-28.29057361 36.18908565 -28.25078669 40.24912341 -23.875 45.125 C-23.359375 45.723125 -22.84375 46.32125 -22.3125 46.9375 C-19.48673905 49.27182426 -16.82114012 49.20844873 -13.34765625 49.046875 C-12.47302734 49.02109375 -11.59839844 48.9953125 -10.69726562 48.96875 C-8.860726 48.90636224 -7.02465081 48.82828704 -5.18945312 48.734375 C1.51025995 48.5766187 1.51025995 48.5766187 4.73046875 51.44921875 C6.40618875 54.66453585 6.58223871 56.54329677 6.125 60.125 C4.85029582 63.3929916 3.65451258 64.84037226 0.5 66.375 C-7.28931141 69.51079364 -16.32783825 69.54891122 -24.29296875 67.0546875 C-34.8721673 62.14722658 -41.59480041 54.92653372 -45.875 44.125 C-48.5829911 35.75800187 -47.68594654 26.09489627 -44.00390625 18.23046875 C-39.30253206 9.46216188 -33.39793791 2.88232355 -24.109375 -0.9921875 C-16.4793459 -3.07477999 -7.23994965 -3.49469336 0 0 Z " fill="#FEFDFC" transform="translate(205.875,125.875)"/>
<path d="M0 0 C11.55 0 23.1 0 35 0 C35 17.49 35 34.98 35 53 C23.45 53 11.9 53 0 53 C0 35.51 0 18.02 0 0 Z " fill="#EAFCFE" transform="translate(362,318)"/>
<path d="M0 0 C11.55 0 23.1 0 35 0 C35 17.49 35 34.98 35 53 C23.45 53 11.9 53 0 53 C0 35.51 0 18.02 0 0 Z " fill="#EAFDFE" transform="translate(309,318)"/>
<path d="M0 0 C11.55 0 23.1 0 35 0 C35 17.49 35 34.98 35 53 C23.45 53 11.9 53 0 53 C0 35.51 0 18.02 0 0 Z " fill="#EAFCFE" transform="translate(115,318)"/>
<path d="M0 0 C11.55 0 23.1 0 35 0 C35 17.49 35 34.98 35 53 C23.45 53 11.9 53 0 53 C0 35.51 0 18.02 0 0 Z " fill="#EBFEFF" transform="translate(362,247)"/>
<path d="M0 0 C11.55 0 23.1 0 35 0 C35 17.49 35 34.98 35 53 C23.45 53 11.9 53 0 53 C0 35.51 0 18.02 0 0 Z " fill="#EBFEFF" transform="translate(309,247)"/>
<path d="M0 0 C11.55 0 23.1 0 35 0 C35 17.49 35 34.98 35 53 C23.45 53 11.9 53 0 53 C0 35.51 0 18.02 0 0 Z " fill="#EBFEFF" transform="translate(115,247)"/>
<path d="M0 0 C11.55 0 23.1 0 35 0 C35 17.16 35 34.32 35 52 C23.45 52 11.9 52 0 52 C0 34.84 0 17.68 0 0 Z " fill="#EBFEFF" transform="translate(362,389)"/>
<path d="M0 0 C11.55 0 23.1 0 35 0 C35 17.16 35 34.32 35 52 C23.45 52 11.9 52 0 52 C0 34.84 0 17.68 0 0 Z " fill="#EBFEFF" transform="translate(309,389)"/>
<path d="M0 0 C11.55 0 23.1 0 35 0 C35 17.16 35 34.32 35 52 C23.45 52 11.9 52 0 52 C0 34.84 0 17.68 0 0 Z " fill="#EBFEFF" transform="translate(115,389)"/>
<path d="M0 0 C4.00525585 1.21329609 6.48599957 3.48599957 9.4375 6.4375 C12.03222173 12.35346555 12.21687241 19.04858286 10.3046875 25.2578125 C8.09715399 29.5430246 5.36707696 32.11763924 1 34 C-4.74315328 34.86426093 -10.4137169 35.45140663 -15.6171875 32.53125 C-19.40586327 29.25605776 -22.70774619 26.03543139 -23.44140625 20.92578125 C-23.80854147 9.97093992 -23.80854147 9.97093992 -19.6875 5.25 C-13.54643679 -0.67219932 -8.29263951 -0.80025472 0 0 Z " fill="#FB9762" transform="translate(262,142)"/>
<path d="M0 0 C40.59 0 81.18 0 123 0 C123 2.31 123 4.62 123 7 C82.41 7 41.82 7 0 7 C0 4.69 0 2.38 0 0 Z " fill="#FEFFFF" transform="translate(168,434)"/>
<path d="M0 0 C40.59 0 81.18 0 123 0 C123 2.31 123 4.62 123 7 C82.41 7 41.82 7 0 7 C0 4.69 0 2.38 0 0 Z " fill="#F9F7FB" transform="translate(168,247)"/>
<path d="M0 0 C11.55 0 23.1 0 35 0 C35 17.49 35 34.98 35 53 C31.7 53 28.4 53 25 53 C25 37.82 25 22.64 25 7 C16.75 7 8.5 7 0 7 C0 4.69 0 2.38 0 0 Z " fill="#FCFCFD" transform="translate(362,247)"/>
<path d="M0 0 C11.55 0 23.1 0 35 0 C35 2.31 35 4.62 35 7 C26.75 7 18.5 7 10 7 C10 22.18 10 37.36 10 53 C6.7 53 3.4 53 0 53 C0 35.51 0 18.02 0 0 Z " fill="#FCFCFD" transform="translate(115,247)"/>
<path d="M0 0 C3.3 0 6.6 0 10 0 C10 17.16 10 34.32 10 52 C-1.55 52 -13.1 52 -25 52 C-25 49.69 -25 47.38 -25 45 C-16.75 45 -8.5 45 0 45 C0 30.15 0 15.3 0 0 Z " fill="#FEFFFF" transform="translate(387,389)"/>
<path d="M0 0 C3.3 0 6.6 0 10 0 C10 14.85 10 29.7 10 45 C18.25 45 26.5 45 35 45 C35 47.31 35 49.62 35 52 C23.45 52 11.9 52 0 52 C0 34.84 0 17.68 0 0 Z " fill="#FEFFFF" transform="translate(115,389)"/>
<path d="M0 0 C0.33 0 0.66 0 1 0 C1 41.91 1 83.82 1 127 C6.61 127 12.22 127 18 127 C18 133.27 18 139.54 18 146 C12.39 146 6.78 146 1 146 C1 179.99 1 213.98 1 249 C0.67 249 0.34 249 0 249 C0 166.83 0 84.66 0 0 Z " fill="#6B3A8D" transform="translate(441,71)"/>
<path d="M0 0 C3.3 0 6.6 0 10 0 C10 17.16 10 34.32 10 52 C6.7 52 3.4 52 0 52 C0 34.84 0 17.68 0 0 Z " fill="#FFFFFF" transform="translate(387,318)"/>
<path d="M0 0 C3.3 0 6.6 0 10 0 C10 17.16 10 34.32 10 52 C6.7 52 3.4 52 0 52 C0 34.84 0 17.68 0 0 Z " fill="#FFFFFF" transform="translate(115,318)"/>
<path d="M0 0 C5.94 0 11.88 0 18 0 C18 6.27 18 12.54 18 19 C12.06 19 6.12 19 0 19 C0 12.73 0 6.46 0 0 Z " fill="#593392" transform="translate(54,386)"/>
<path d="M0 0 C11.55 0 23.1 0 35 0 C35 2.31 35 4.62 35 7 C23.45 7 11.9 7 0 7 C0 4.69 0 2.38 0 0 Z " fill="#FEFFFF" transform="translate(309,434)"/>
<path d="M0 0 C11.55 0 23.1 0 35 0 C35 2.31 35 4.62 35 7 C23.45 7 11.9 7 0 7 C0 4.69 0 2.38 0 0 Z " fill="#F9F7FB" transform="translate(309,247)"/>
<path d="M0 0 C5.61 0 11.22 0 17 0 C16.67 1.65 16.34 3.3 16 5 C13.65076184 6.53546919 11.59038737 7.67758129 9.0625 8.8125 C8.41603516 9.12380859 7.76957031 9.43511719 7.10351562 9.75585938 C2.35382898 12 2.35382898 12 0 12 C0 8.04 0 4.08 0 0 Z " fill="#FB9D6B" transform="translate(318,141)"/>
</svg>
